<svg width="400" height="510" viewBox="0 0 400 510" fill="none" xmlns="http://www.w3.org/2000/svg">
<path d="M200 509.091L46.6183 328.2C44.487 325.484 42.3778 322.75 40.291 320C14.1039 285.48 -0.048626 243.329 0.00012553 200C0.00012553 146.957 21.0715 96.0859 58.5787 58.5786C96.086 21.0714 146.957 0 200 0C253.043 0 303.914 21.0714 341.421 58.5786C378.929 96.0859 400 146.957 400 200C400.042 243.308 385.897 285.438 359.727 319.945L359.709 320C359.709 320 354.254 327.163 353.436 328.127L200 509.091ZM69.3274 298.091C69.3274 298.091 73.5637 303.691 74.5274 304.891L200 452.872L325.636 304.691C326.436 303.691 330.709 298.036 330.709 298.036C352.113 269.839 363.68 235.401 363.636 200C363.636 156.601 346.396 114.979 315.708 84.2916C285.021 53.6038 243.399 36.3636 200 36.3636C156.601 36.3636 114.979 53.6038 84.2917 84.2916C53.6039 114.979 36.3637 156.601 36.3637 200C36.3189 235.423 47.8991 269.883 69.3274 298.091Z" fill="black"/>
<path d="M290.909 290.909H254.545V145.454H145.455V290.909H109.091V145.454C109.091 135.81 112.922 126.561 119.742 119.742C126.561 112.922 135.81 109.091 145.455 109.091H254.545C264.19 109.091 273.439 112.922 280.258 119.742C287.078 126.561 290.909 135.81 290.909 145.454V290.909Z" fill="black"/>
<path d="M181.818 254.545H218.182V290.909H181.818V254.545ZM181.818 181.818H218.182V218.182H181.818V181.818Z" fill="black"/>
</svg>
