<svg width="400" height="286" viewBox="0 0 400 286" fill="none" xmlns="http://www.w3.org/2000/svg">
<path d="M371.429 0H28.5714C20.9938 0 13.7266 3.01019 8.36838 8.36838C3.01019 13.7266 0 20.9938 0 28.5714V257.143C0 264.72 3.01019 271.988 8.36838 277.346C13.7266 282.704 20.9938 285.714 28.5714 285.714H371.429C379.006 285.714 386.273 282.704 391.632 277.346C396.99 271.988 400 264.72 400 257.143V28.5714C400 20.9938 396.99 13.7266 391.632 8.36838C386.273 3.01019 379.006 0 371.429 0ZM340 28.5714L200 125.429L60 28.5714H340ZM28.5714 257.143V41.5714L191.857 154.571C194.249 156.23 197.09 157.119 200 157.119C202.91 157.119 205.751 156.23 208.143 154.571L371.429 41.5714V257.143H28.5714Z" fill="black"/>
</svg>
