<svg width="400" height="343" viewBox="0 0 400 343" fill="none" xmlns="http://www.w3.org/2000/svg">
<path d="M371.429 0H28.5714C20.9938 0 13.7266 3.01019 8.36838 8.36838C3.01019 13.7266 0 20.9938 0 28.5714V314.286C0 321.863 3.01019 329.131 8.36838 334.489C13.7266 339.847 20.9938 342.857 28.5714 342.857H371.429C379.006 342.857 386.273 339.847 391.632 334.489C396.99 329.131 400 321.863 400 314.286V28.5714C400 20.9938 396.99 13.7266 391.632 8.36838C386.273 3.01019 379.006 0 371.429 0ZM28.5714 28.5714H114.286V314.286H28.5714V28.5714ZM371.429 314.286H142.857V28.5714H371.429V314.286Z" fill="black"/>
</svg>
