<svg width="400" height="358" viewBox="0 0 400 358" fill="none" xmlns="http://www.w3.org/2000/svg">
<path d="M200 157.143H228.571V185.714H200V157.143ZM257.143 157.143H285.714V185.714H257.143V157.143ZM314.286 157.143H342.857V185.714H314.286V157.143ZM200 214.286H228.571V242.857H200V214.286ZM257.143 214.286H285.714V242.857H257.143V214.286ZM314.286 214.286H342.857V242.857H314.286V214.286ZM200 271.429H228.571V300H200V271.429ZM257.143 271.429H285.714V300H257.143V271.429ZM314.286 271.429H342.857V300H314.286V271.429ZM200 100H342.857V128.571H200V100Z" fill="black"/>
<path d="M371.429 42.8571H171.429V28.5714C171.417 20.9973 168.403 13.7366 163.048 8.3809C157.692 3.02517 150.431 0.0113357 142.857 0H85.7143C78.1402 0.0113357 70.8795 3.02517 65.5238 8.3809C60.168 13.7366 57.1542 20.9973 57.1429 28.5714V42.8571H28.5714C20.9973 42.8685 13.7366 45.8823 8.3809 51.238C3.02517 56.5938 0.0113357 63.8544 0 71.4286V328.571C0.0113357 336.146 3.02517 343.406 8.3809 348.762C13.7366 354.118 20.9973 357.132 28.5714 357.143H371.429C379.003 357.132 386.263 354.118 391.619 348.762C396.975 343.406 399.989 336.146 400 328.571V71.4286C399.989 63.8544 396.975 56.5938 391.619 51.238C386.263 45.8823 379.003 42.8685 371.429 42.8571ZM85.7143 28.5714H142.857V271.429H85.7143V28.5714ZM371.429 328.571H28.5714V71.4286H57.1429V271.429C57.1542 279.003 60.168 286.263 65.5238 291.619C70.8795 296.975 78.1402 299.989 85.7143 300H142.857C150.431 299.989 157.692 296.975 163.048 291.619C168.403 286.263 171.417 279.003 171.429 271.429V71.4286H371.429V328.571Z" fill="black"/>
</svg>
