<svg width="35" height="32" viewBox="0 0 35 32" fill="currentColor" xmlns="http://www.w3.org/2000/svg">
<path d="M21.0427 14.4406L19.8119 12.3077L7.35405 19.5028L6.12697 18.7938C6.45253 18.5274 6.73017 18.2073 6.94789 17.8474C7.31305 17.215 7.48248 16.4885 7.43473 15.7597C7.38699 15.031 7.12423 14.3328 6.67968 13.7535C6.23513 13.1741 5.62876 12.7395 4.93724 12.5048C4.24573 12.27 3.50013 12.2456 2.79473 12.4346C2.08934 12.6236 1.45583 13.0175 0.974319 13.5666C0.49281 14.1156 0.184928 14.7951 0.0896067 15.5192C-0.0057147 16.2432 0.115806 16.9792 0.438801 17.6342C0.761797 18.2892 1.27176 18.8336 1.9042 19.1988L4.89251 20.9231L1.9042 22.6486C1.21054 23.0386 0.659597 23.64 0.331714 24.365C0.00383012 25.0901 -0.083846 25.901 0.08147 26.6794C0.246786 27.4578 0.656448 28.163 1.25072 28.6923C1.84499 29.2215 2.59279 29.547 3.38507 29.6214C4.17735 29.6958 4.97268 29.5152 5.65509 29.1058C6.33749 28.6965 6.87127 28.0798 7.17859 27.3458C7.48592 26.6117 7.55072 25.7987 7.36354 25.0253C7.17636 24.2519 6.74699 23.5584 6.13805 23.0462L7.35405 22.3446L15.5534 27.0769L16.7842 24.9477L9.81559 20.9231L21.0427 14.4406ZM2.56143 16.32C2.48765 16.045 2.51151 15.7529 2.62896 15.4935C2.7464 15.2341 2.95016 15.0234 3.20551 14.8974C3.46086 14.7714 3.75201 14.7378 4.02934 14.8024C4.30667 14.867 4.55302 15.0257 4.72642 15.2516C4.89982 15.4775 4.98954 15.7565 4.98029 16.0411C4.97103 16.3257 4.86338 16.5983 4.67568 16.8124C4.48797 17.0265 4.23183 17.1689 3.95089 17.2154C3.66995 17.2618 3.3816 17.2094 3.13497 17.0671C2.8523 16.9039 2.646 16.6352 2.56143 16.32ZM3.75036 24.6154C3.96645 24.6152 4.1788 24.6718 4.36604 24.7797C4.55329 24.8876 4.70883 25.0429 4.81702 25.23C4.92521 25.417 4.98225 25.6293 4.98239 25.8454C4.98252 26.0615 4.92576 26.2738 4.81781 26.461C4.70986 26.6482 4.55452 26.8037 4.36741 26.9118C4.18031 27.0199 3.96803 27.0769 3.75193 27.0769C3.53583 27.077 3.32353 27.0201 3.13637 26.9121C2.94921 26.8041 2.79379 26.6487 2.68574 26.4615C2.57777 26.2745 2.5209 26.0624 2.52085 25.8465C2.52079 25.6305 2.57755 25.4184 2.68542 25.2313C2.7933 25.0443 2.94849 24.8889 3.13541 24.7808C3.32234 24.6726 3.53442 24.6156 3.75036 24.6154ZM18.5196 29.5385H23.4427V32H18.5196V29.5385ZM9.9042 29.5385H14.8273V32H9.9042V29.5385Z" fill="black"/>
<path d="M32.058 32H27.135V29.5385H32.058V2.46154H6.21189V7.38462H3.75036V2.46154C3.75036 1.8087 4.0097 1.1826 4.47132 0.720968C4.93295 0.25934 5.55905 0 6.21189 0H32.058C32.7109 0 33.337 0.25934 33.7986 0.720968C34.2602 1.1826 34.5196 1.8087 34.5196 2.46154V29.5385C34.5196 30.1913 34.2602 30.8174 33.7986 31.279C33.337 31.7407 32.7109 32 32.058 32Z" fill="black"/>
</svg>
