<svg width="1014" height="400" viewBox="0 0 1014 400" fill="none" xmlns="http://www.w3.org/2000/svg">
<g clip-path="url(#clip0_560_380)">
<path d="M199.395 0C159.958 0 121.407 11.7298 88.617 33.7061C55.8267 55.6824 30.2698 86.9181 15.1781 123.463C0.086396 160.009 -3.86228 200.222 3.8314 239.018C11.5251 277.814 30.5156 313.451 58.4014 341.421C86.2872 369.392 121.816 388.44 160.495 396.157C199.173 403.874 239.265 399.913 275.7 384.776C312.134 369.638 343.275 344.004 365.185 311.114C387.095 278.224 398.789 239.556 398.789 200C398.789 146.957 377.782 96.0859 340.388 58.5786C302.994 21.0714 252.277 0 199.395 0ZM199.395 381C163.705 381 128.816 370.384 99.1408 350.496C69.4656 330.607 46.3367 302.339 32.6787 269.266C19.0207 236.192 15.4471 199.799 22.4099 164.689C29.3727 129.578 46.5591 97.327 71.7958 72.0137C97.0324 46.7004 129.186 29.4618 164.19 22.4779C199.194 15.4939 235.477 19.0783 268.451 32.7778C301.424 46.4773 329.607 69.6765 349.435 99.4418C369.263 129.207 379.847 164.202 379.847 200C379.856 223.772 375.195 247.313 366.13 269.277C357.064 291.241 343.773 311.198 327.014 328.007C310.256 344.817 290.359 358.149 268.462 367.241C246.564 376.334 223.095 381.009 199.395 381Z" fill="white"/>
<path d="M170.91 45.0001L170.34 46.143L160.085 64.2858L155.101 72.9287L147.196 86.643L134.022 109.286L133.167 110.714L115.649 141.214L87.164 91.8572C81.3756 97.8024 76.0432 104.178 71.2124 110.929C69.0048 114.214 66.8685 117.5 64.8745 120.929V296.214H86.6655V137.786L87.0928 138.572L97.1337 156L102.047 164.572L110.166 178.572L112.872 183.214L114.296 185.786L127.755 162.5L133.096 153.214L144.988 132.572L147.125 128.786L158.234 109.5L167.848 92.8572L170.411 88.4287V363.357H187.431L188.57 362.714L192.986 360.143V42.0715C185.572 42.5687 178.198 43.547 170.91 45.0001Z" fill="white"/>
<path d="M302.083 86.5001C304.504 84.9286 306.925 83.4286 309.204 82.0001C303.193 76.7839 296.815 72.0096 290.119 67.7144C281.604 73.2756 273.619 79.6119 266.263 86.6429C264.483 88.2858 262.845 90.0001 261.136 91.7858C236.973 117.105 221.725 149.652 217.714 184.469C213.703 219.286 221.149 254.464 238.917 284.643C241.339 288.786 243.902 292.786 246.68 296.643C251.017 302.778 255.776 308.601 260.922 314.071C262.631 315.857 264.269 317.571 266.049 319.214C273.387 326.266 281.374 332.604 289.905 338.143C296.617 333.871 302.997 329.096 308.99 323.857C306.427 322.429 304.005 320.929 301.869 319.357C292.104 312.983 283.18 305.4 275.307 296.786C270.048 291.135 265.283 285.041 261.064 278.571C241.127 247.748 234.21 210.243 241.835 174.305C249.46 138.367 271.003 106.938 301.727 86.9286L302.083 86.5001Z" fill="white"/>
<path d="M491.365 101.428V19.4285H507.815L538.437 60.1427H530.39L560.156 19.4285H576.82V101.428H559.587V38.2856L566.708 39.7856L535.161 80.4999H532.668L502.261 39.7856L508.029 38.2856V101.428H491.365Z" fill="white"/>
<path d="M585.081 101.428L612.426 19.4285H635L662.987 101.428H644.4L638.917 84.7142H608.937L603.453 101.428H585.081ZM613.566 69.857H634.075L621.684 31.1428H626.669L613.566 69.857Z" fill="white"/>
<path d="M671.39 101.428V19.4285H688.409V60.4999L683.638 58.857L716.325 19.4285H737.688L705.358 58.6427L706.284 46.4999L738.329 101.428H718.532L698.522 66.7856L688.409 78.9999V101.428H671.39Z" fill="white"/>
<path d="M746.804 101.428V19.4285H763.823V101.428H746.804Z" fill="white"/>
<path d="M529.82 234.857C524.231 234.889 518.691 233.822 513.512 231.714C508.578 229.632 504.108 226.582 500.366 222.743C496.624 218.903 493.685 214.352 491.721 209.357C489.616 204.114 488.552 198.509 488.588 192.857C488.387 186.969 489.331 181.098 491.365 175.572C493.321 170.549 496.277 165.98 500.053 162.143C503.771 158.34 508.232 155.349 513.156 153.357C518.431 151.13 524.097 149.989 529.82 150C535.307 149.919 540.754 150.939 545.843 153C550.332 154.789 554.405 157.488 557.806 160.929C560.984 164.003 563.42 167.766 564.928 171.929L549.902 179.072C548.553 175.171 546.073 171.763 542.781 169.286C539.111 166.594 534.649 165.211 530.105 165.357C525.639 165.257 521.239 166.447 517.429 168.786C513.565 171.075 510.486 174.488 508.599 178.572C506.627 182.999 505.608 187.794 505.608 192.643C505.608 197.492 506.627 202.287 508.599 206.714C510.474 210.642 513.442 213.941 517.144 216.214C520.96 218.532 525.361 219.697 529.82 219.572C534.351 219.706 538.803 218.352 542.496 215.714C545.769 213.188 548.243 209.764 549.617 205.857L564.643 213C563.101 217.146 560.67 220.901 557.521 224C554.082 227.394 550.019 230.086 545.558 231.929C540.543 233.891 535.203 234.884 529.82 234.857Z" fill="white"/>
<path d="M575.681 233.571V151.571H607.014C612.151 151.454 617.253 152.453 621.969 154.5C626.163 156.371 629.725 159.423 632.223 163.286C634.723 167.629 636.04 172.556 636.04 177.571C636.04 182.587 634.723 187.514 632.223 191.857C629.686 195.729 626.105 198.801 621.898 200.714L640.555 233.428H621.399L601.175 197.214L612.141 203.714H592.7V233.571H575.681ZM592.7 189H606.943C609.126 189.056 611.287 188.539 613.21 187.5C614.938 186.621 616.373 185.256 617.34 183.571C618.357 181.79 618.874 179.766 618.835 177.714C618.872 175.64 618.356 173.593 617.34 171.786C616.354 170.116 614.924 168.756 613.21 167.857C611.28 166.843 609.12 166.35 606.943 166.428H592.7V189Z" fill="white"/>
<path d="M648.887 233.572V151.572H703.863V166.429H665.906V185H701.513V200H665.906V218.857H703.863V233.572H648.887Z" fill="white"/>
<path d="M707.495 233.572L735.196 151.572H757.771L785.472 233.572H766.886L761.402 216.786H731.422L725.939 233.572H707.495ZM735.98 201.929H756.489L743.955 163.214H748.584L735.98 201.929Z" fill="white"/>
<path d="M803.133 233.572V166.429H782.41V151.572H840.306V166.429H819.939V233.572H803.133Z" fill="white"/>
<path d="M848.994 233.572V151.572H866.013V233.572H848.994Z" fill="white"/>
<path d="M902.402 233.572L874.416 151.572H893.074L914.437 217.357H910.734L932.098 151.572H950.756L922.199 233.572H902.402Z" fill="white"/>
<path d="M958.66 233.572V151.572H1013.64V166.429H975.609V185H1011.21V200H975.609V218.857H1013.64V233.572H958.66Z" fill="white"/>
<path d="M520.705 367C515.813 367.027 510.967 366.055 506.462 364.143C502.049 362.368 498.066 359.664 494.783 356.214C491.585 352.686 489.159 348.526 487.662 344L501.905 337.714C503.729 341.939 506.657 345.591 510.379 348.286C513.881 350.819 518.096 352.169 522.414 352.143C524.465 352.177 526.501 351.788 528.396 351C529.977 350.391 531.358 349.352 532.383 348C533.339 346.671 533.839 345.067 533.808 343.429C533.858 341.619 533.222 339.857 532.027 338.5C530.535 336.935 528.636 335.822 526.544 335.286L510.521 330C504.884 328.408 499.802 325.265 495.851 320.929C492.513 316.933 490.741 311.854 490.867 306.643C490.77 302.112 492.036 297.657 494.498 293.857C496.921 290.089 500.385 287.111 504.468 285.286C509.08 283.128 514.121 282.053 519.209 282.143C523.867 282.099 528.488 282.973 532.811 284.714C536.864 286.335 540.547 288.765 543.635 291.857C546.846 294.961 549.285 298.778 550.756 303L536.941 309.286C535.538 305.627 533.053 302.487 529.82 300.286C526.729 298.133 523.043 297.008 519.28 297.071C517.213 297.035 515.158 297.399 513.227 298.143C511.612 298.796 510.207 299.884 509.168 301.286C508.234 302.652 507.737 304.272 507.744 305.929C507.694 307.773 508.358 309.564 509.595 310.929C511.149 312.533 513.086 313.713 515.221 314.357L530.888 319.357C536.345 321.109 541.237 324.29 545.059 328.571C548.347 332.587 550.068 337.664 549.902 342.857C549.99 347.375 548.697 351.812 546.199 355.571C543.614 359.339 540.074 362.347 535.944 364.286C531.124 366.3 525.921 367.227 520.705 367Z" fill="white"/>
<path d="M576.82 365.643V298.5H555.955V283.643H614.135V298.5H593.697V365.643H576.82Z" fill="white"/>
<path d="M655.153 367C649.159 367.12 643.231 365.719 637.92 362.929C633.013 360.344 628.902 356.467 626.028 351.714C623.077 346.907 621.547 341.359 621.612 335.714V283.643H638.632V334.5C638.587 337.541 639.323 340.542 640.769 343.214C642.095 345.776 644.12 347.907 646.608 349.357C649.173 350.87 652.107 351.637 655.082 351.571C658.058 351.648 660.996 350.881 663.556 349.357C666.044 347.907 668.07 345.776 669.396 343.214C670.842 340.542 671.578 337.541 671.532 334.5V283.643H688.552V335.714C688.631 341.396 687.127 346.987 684.208 351.857C681.315 356.594 677.208 360.467 672.316 363.071C667.007 365.784 661.11 367.134 655.153 367Z" fill="white"/>
<path d="M702.011 365.643V283.643H728.716C736.724 283.463 744.652 285.28 751.789 288.929C758.049 292.188 763.277 297.136 766.886 303.214C770.439 309.704 772.302 316.989 772.302 324.393C772.302 331.797 770.439 339.081 766.886 345.571C763.292 351.662 758.06 356.613 751.789 359.857C744.652 363.506 736.724 365.322 728.716 365.143L702.011 365.643ZM719.245 350.786H729.357C734.158 350.9 738.911 349.794 743.172 347.571C747 345.46 750.141 342.285 752.216 338.429C754.37 334.129 755.492 329.384 755.492 324.571C755.492 319.759 754.37 315.014 752.216 310.714C750.135 306.898 746.993 303.771 743.172 301.714C738.911 299.492 734.158 298.386 729.357 298.5H719.245V350.786Z" fill="white"/>
<path d="M783.336 365.643V283.643H800.356V365.643H783.336Z" fill="white"/>
<path d="M855.545 367C849.694 367.051 843.889 365.96 838.454 363.786C833.315 361.745 828.64 358.684 824.71 354.786C820.821 350.94 817.702 346.381 815.524 341.357C813.294 336.047 812.179 330.333 812.248 324.571C812.192 318.841 813.281 313.158 815.453 307.857C817.536 302.799 820.64 298.227 824.568 294.429C828.551 290.668 833.217 287.71 838.312 285.714C849.403 281.427 861.687 281.427 872.779 285.714C877.916 287.766 882.608 290.798 886.594 294.643C890.501 298.459 893.601 303.026 895.709 308.071C897.881 313.372 898.97 319.055 898.914 324.786C898.983 330.547 897.868 336.261 895.638 341.571C893.46 346.595 890.341 351.154 886.451 355C882.508 358.882 877.837 361.94 872.707 364C867.235 366.108 861.406 367.127 855.545 367ZM855.545 351.571C859.11 351.619 862.648 350.939 865.942 349.571C869.161 348.289 872.085 346.36 874.534 343.904C876.983 341.447 878.906 338.514 880.185 335.286C882.663 328.359 882.663 320.784 880.185 313.857C878.879 310.683 876.968 307.796 874.559 305.357C872.087 302.993 869.153 301.169 865.942 300C862.633 298.69 859.103 298.035 855.545 298.071C852.011 298.035 848.504 298.69 845.22 300C842.067 301.259 839.206 303.155 836.816 305.571C834.407 308.01 832.496 310.898 831.191 314.071C828.712 320.998 828.712 328.573 831.191 335.5C832.469 338.729 834.392 341.661 836.841 344.118C839.29 346.575 842.214 348.503 845.433 349.786C848.651 351.051 852.09 351.658 855.545 351.571Z" fill="white"/>
</g>
<defs>
<clipPath id="clip0_560_380">
<rect width="1013.64" height="400" fill="white"/>
</clipPath>
</defs>
</svg>
