<svg width="115" height="80" viewBox="0 0 115 80" fill="none" xmlns="http://www.w3.org/2000/svg">
<path d="M57.2211 1.16276e-06C52.0688 -0.00153799 47.0318 1.52499 42.7472 4.38649C38.4625 7.248 35.1228 11.3159 33.1504 16.0757C31.178 20.8356 30.6615 26.0734 31.6663 31.1268C32.6711 36.1802 35.152 40.822 38.7952 44.4653C42.4384 48.1085 47.0803 50.5894 52.1337 51.5942C57.1871 52.599 62.4249 52.0825 67.1847 50.1101C71.9445 48.1377 76.0125 44.7979 78.874 40.5133C81.7355 36.2287 83.262 31.1917 83.2605 26.0394C83.2605 19.1333 80.517 12.5101 75.6337 7.62676C70.7504 2.74343 64.1272 1.16276e-06 57.2211 1.16276e-06ZM57.2211 49.6195C52.5571 49.6211 47.9973 48.2394 44.1185 45.6494C40.2398 43.0593 37.2162 39.3771 35.4303 35.0685C33.6444 30.7599 33.1763 26.0185 34.0853 21.4439C34.9943 16.8693 37.2394 12.6669 40.5369 9.36842C43.8343 6.06989 48.0359 3.82332 52.6102 2.91285C57.1845 2.00237 61.9261 2.46888 66.2353 4.25338C70.5444 6.03788 74.2276 9.0602 76.819 12.9381C79.4103 16.816 80.7935 21.3753 80.7935 26.0394C80.7935 32.2919 78.3102 38.2884 73.8898 42.7103C69.4693 47.1322 63.4736 49.6175 57.2211 49.6195Z" fill="white"/>
<path d="M53.509 5.86003L53.4312 6.00789L51.4389 9.4632L48.6762 14.2415L48.575 14.4205L46.2793 18.3972L42.5672 11.9691L42.5282 12.008C41.7932 12.7822 41.1193 13.6122 40.5126 14.4905C40.2169 14.9108 39.9445 15.3466 39.6799 15.7902V38.5688H42.5282V17.9458L42.5827 18.0392L43.8979 20.3116L44.5438 21.4245L45.9291 23.8292L46.1236 24.1716L47.8746 21.1288L48.575 19.9225L50.1315 17.2299L50.4116 16.7396L53.1121 12.0625L53.4467 11.4866V47.2849H55.6724L55.8203 47.1993L56.3962 46.8724V5.44757C55.4256 5.51988 54.461 5.65768 53.509 5.86003Z" fill="white"/>
<path d="M70.6299 11.2609C70.9412 11.0586 71.268 10.864 71.5949 10.6772C70.8155 9.99085 69.9856 9.36392 69.1124 8.80171C68.0004 9.52271 66.9583 10.346 65.9995 11.2609C65.766 11.4788 65.5481 11.7045 65.3302 11.9302C64.2038 13.0923 63.2142 14.3795 62.3807 15.7668C60.4852 18.9889 59.4857 22.6591 59.4857 26.3973C59.4857 30.1356 60.4852 33.8058 62.3807 37.0279C62.6998 37.5649 63.0422 38.0863 63.4002 38.5843C63.9765 39.3852 64.6085 40.1445 65.2913 40.8567C65.5092 41.0824 65.7271 41.3081 65.9606 41.526C66.9193 42.4409 67.9615 43.2642 69.0734 43.9852C69.9449 43.4205 70.7746 42.7937 71.556 42.1097C71.2291 41.9229 70.9023 41.7284 70.591 41.526C68.4693 40.1452 66.6612 38.3344 65.2835 36.2108C63.3838 33.2874 62.3726 29.8759 62.3726 26.3896C62.3726 22.9032 63.3838 19.4917 65.2835 16.5684C66.6757 14.4455 68.4969 12.6375 70.6299 11.2609Z" fill="white"/>
<path d="M0 67.9V60.5021H1.48952L4.26003 64.1762H3.56492L6.25598 60.5021H7.74551V67.9H6.20633V62.2001L6.822 62.3391L3.97205 66.0133H3.77345L1.0228 62.3391L1.53917 62.2001V67.9H0Z" fill="white"/>
<path d="M8.51121 67.9L11.0136 60.5021H13.0592L15.5616 67.9H13.8834L13.3869 66.3906H10.676L10.1795 67.9H8.51121ZM11.103 65.0501H12.9599L11.8279 61.5547H12.2449L11.103 65.0501Z" fill="white"/>
<path d="M16.3304 67.9V60.5021H17.8696V64.206L17.4426 64.0571L20.4018 60.5021H22.3282L19.3988 64.0372L19.4882 62.9449L22.3878 67.9H20.5904L18.7832 64.772L17.8696 65.8743V67.9H16.3304Z" fill="white"/>
<path d="M23.1477 67.9V60.5021H24.6869V67.9H23.1477Z" fill="white"/>
<path d="M31.2983 68.0192C30.7687 68.0192 30.2755 67.9232 29.8187 67.7312C29.3686 67.5392 28.9747 67.2711 28.637 66.9269C28.2994 66.5826 28.0346 66.1788 27.8426 65.7154C27.6573 65.252 27.5646 64.7456 27.5646 64.1961C27.5646 63.6466 27.6573 63.1402 27.8426 62.6768C28.028 62.2067 28.2895 61.8029 28.6271 61.4653C28.9647 61.1211 29.3586 60.8563 29.8088 60.6709C30.2656 60.4789 30.7621 60.3829 31.2983 60.3829C31.8345 60.3829 32.3145 60.4723 32.7382 60.651C33.1685 60.8298 33.5326 61.0681 33.8305 61.366C34.1284 61.6639 34.3402 61.9949 34.466 62.359L33.1056 63.0144C32.9798 62.6569 32.758 62.3623 32.4403 62.1306C32.1291 61.8923 31.7485 61.7731 31.2983 61.7731C30.8614 61.7731 30.4774 61.8757 30.1464 62.081C29.8154 62.2862 29.5572 62.5709 29.3719 62.935C29.1931 63.2924 29.1037 63.7128 29.1037 64.1961C29.1037 64.6794 29.1931 65.103 29.3719 65.4671C29.5572 65.8312 29.8154 66.1159 30.1464 66.3211C30.4774 66.5264 30.8614 66.629 31.2983 66.629C31.7485 66.629 32.1291 66.5131 32.4403 66.2814C32.758 66.0431 32.9798 65.7452 33.1056 65.3877L34.466 66.0431C34.3402 66.4072 34.1284 66.7382 33.8305 67.0361C33.5326 67.334 33.1685 67.5723 32.7382 67.7511C32.3145 67.9298 31.8345 68.0192 31.2983 68.0192Z" fill="white"/>
<path d="M35.4537 67.9V60.5021H38.2838C38.7935 60.5021 39.2437 60.5914 39.6343 60.7702C40.0315 60.9489 40.3426 61.2137 40.5677 61.5646C40.7928 61.9155 40.9053 62.3491 40.9053 62.8654C40.9053 63.3686 40.7895 63.7989 40.5578 64.1564C40.3261 64.5072 40.0149 64.772 39.6243 64.9508L41.3125 67.9H39.5846L37.7575 64.633L38.7505 65.2189H36.9929V67.9H35.4537ZM36.9929 63.8783H38.2937C38.5122 63.8783 38.7008 63.8353 38.8597 63.7492C39.0186 63.6632 39.1411 63.544 39.2271 63.3917C39.3198 63.2395 39.3662 63.064 39.3662 62.8654C39.3662 62.6602 39.3198 62.4815 39.2271 62.3292C39.1411 62.177 39.0186 62.0578 38.8597 61.9717C38.7008 61.8857 38.5122 61.8426 38.2937 61.8426H36.9929V63.8783Z" fill="white"/>
<path d="M42.077 67.9V60.5021H47.052V61.8426H43.6162V63.5208H46.8534V64.8614H43.6162V66.5595H47.052V67.9H42.077Z" fill="white"/>
<path d="M47.3784 67.9L49.8808 60.5021H51.9264L54.4288 67.9H52.7506L52.2541 66.3906H49.5431L49.0466 67.9H47.3784ZM49.9701 65.0501H51.8271L50.695 61.5547H51.1121L49.9701 65.0501Z" fill="white"/>
<path d="M56.0337 67.9V61.8426H54.1569V60.5021H59.4198V61.8426H57.5728V67.9H56.0337Z" fill="white"/>
<path d="M60.182 67.9V60.5021H61.7212V67.9H60.182Z" fill="white"/>
<path d="M65.0191 67.9L62.4869 60.5021H64.175L66.0816 66.4403H65.744L67.6506 60.5021H69.3387L66.8065 67.9H65.0191Z" fill="white"/>
<path d="M70.1025 67.9V60.5021H75.0775V61.8426H71.6416V63.5208H74.8789V64.8614H71.6416V66.5595H75.0775V67.9H70.1025Z" fill="white"/>
<path d="M80.4254 68.0192C79.962 68.0192 79.5251 67.9364 79.1146 67.7709C78.7108 67.5988 78.3599 67.3572 78.062 67.046C77.7707 66.7349 77.5523 66.3675 77.4066 65.9438L78.6678 65.3778C78.8531 65.7816 79.108 66.0994 79.4324 66.3311C79.7634 66.5628 80.1275 66.6786 80.5247 66.6786C80.7365 66.6786 80.9186 66.6455 81.0709 66.5793C81.2231 66.5131 81.3423 66.4237 81.4283 66.3112C81.5144 66.192 81.5574 66.053 81.5574 65.8941C81.5574 65.722 81.5045 65.5764 81.3986 65.4572C81.2926 65.3314 81.1271 65.2321 80.9021 65.1593L79.4522 64.6827C78.8631 64.4907 78.4195 64.2193 78.1216 63.8684C77.8237 63.5109 77.6748 63.0839 77.6748 62.5874C77.6748 62.1505 77.7807 61.7665 77.9925 61.4355C78.211 61.1045 78.5122 60.8463 78.8962 60.661C79.2867 60.4756 79.7336 60.3829 80.2367 60.3829C80.6803 60.3829 81.0907 60.459 81.4681 60.6113C81.8454 60.7636 82.1698 60.9787 82.4412 61.2568C82.7193 61.5348 82.9278 61.8691 83.0668 62.2597L81.8156 62.8257C81.6766 62.4815 81.4681 62.2134 81.19 62.0214C80.912 61.8228 80.5942 61.7235 80.2367 61.7235C80.0315 61.7235 79.8494 61.7566 79.6906 61.8228C79.5317 61.889 79.4092 61.985 79.3232 62.1108C79.2371 62.2299 79.1941 62.3689 79.1941 62.5278C79.1941 62.6999 79.2503 62.8522 79.3629 62.9846C79.4754 63.1104 79.6442 63.2097 79.8693 63.2825L81.2893 63.7393C81.8851 63.9313 82.3287 64.1994 82.62 64.5436C82.9179 64.8879 83.0668 65.3083 83.0668 65.8048C83.0668 66.2351 82.9543 66.619 82.7292 66.9567C82.5041 67.2877 82.193 67.5492 81.7958 67.7411C81.4052 67.9265 80.9484 68.0192 80.4254 68.0192Z" fill="white"/>
<path d="M85.4943 67.9V61.8426H83.6176V60.5021H88.8805V61.8426H87.0335V67.9H85.4943Z" fill="white"/>
<path d="M92.5821 68.0192C91.9995 68.0192 91.4798 67.8967 91.023 67.6518C90.5662 67.4068 90.2054 67.0725 89.9406 66.6488C89.6824 66.2185 89.5534 65.7319 89.5534 65.1891V60.5021H91.0925V65.0898C91.0925 65.3811 91.1554 65.6459 91.2812 65.8842C91.4136 66.1159 91.5924 66.298 91.8174 66.4304C92.0425 66.5628 92.2974 66.629 92.5821 66.629C92.8733 66.629 93.1282 66.5628 93.3467 66.4304C93.5718 66.298 93.7472 66.1159 93.873 65.8842C94.0054 65.6459 94.0716 65.3811 94.0716 65.0898V60.5021H95.6107V65.1891C95.6107 65.7319 95.4783 66.2185 95.2135 66.6488C94.9554 67.0725 94.5979 67.4068 94.1411 67.6518C93.6843 67.8967 93.1646 68.0192 92.5821 68.0192Z" fill="white"/>
<path d="M96.8285 67.9V60.5021H99.2415C100.043 60.5021 100.738 60.661 101.327 60.9787C101.916 61.2965 102.373 61.7334 102.697 62.2895C103.022 62.8456 103.184 63.4811 103.184 64.1961C103.184 64.9111 103.022 65.5499 102.697 66.1126C102.373 66.6687 101.916 67.1056 101.327 67.4234C100.738 67.7411 100.043 67.9 99.2415 67.9H96.8285ZM98.3677 66.5595H99.2812C99.7645 66.5595 100.182 66.4635 100.532 66.2715C100.883 66.0729 101.155 65.7981 101.347 65.4473C101.545 65.0898 101.645 64.6727 101.645 64.1961C101.645 63.7128 101.545 63.2957 101.347 62.9449C101.155 62.594 100.883 62.3226 100.532 62.1306C100.182 61.9386 99.7645 61.8426 99.2812 61.8426H98.3677V66.5595Z" fill="white"/>
<path d="M104.169 67.9V60.5021H105.709V67.9H104.169Z" fill="white"/>
<path d="M110.724 68.0192C110.168 68.0192 109.652 67.9232 109.175 67.7312C108.699 67.5392 108.282 67.2711 107.924 66.9269C107.573 66.576 107.299 66.1689 107.1 65.7055C106.901 65.2421 106.802 64.7389 106.802 64.1961C106.802 63.6532 106.898 63.1501 107.09 62.6867C107.289 62.2233 107.563 61.8195 107.914 61.4752C108.272 61.131 108.689 60.8629 109.165 60.6709C109.642 60.4789 110.162 60.3829 110.724 60.3829C111.287 60.3829 111.807 60.4789 112.283 60.6709C112.76 60.8629 113.174 61.131 113.525 61.4752C113.882 61.8195 114.157 62.2233 114.349 62.6867C114.548 63.1501 114.647 63.6532 114.647 64.1961C114.647 64.7389 114.548 65.2421 114.349 65.7055C114.15 66.1689 113.872 66.576 113.515 66.9269C113.164 67.2711 112.75 67.5392 112.274 67.7312C111.797 67.9232 111.28 68.0192 110.724 68.0192ZM110.724 66.629C111.062 66.629 111.373 66.5694 111.658 66.4502C111.949 66.3311 112.204 66.1656 112.422 65.9537C112.641 65.7353 112.81 65.4771 112.929 65.1792C113.048 64.8813 113.108 64.5536 113.108 64.1961C113.108 63.8386 113.048 63.5142 112.929 63.2229C112.81 62.925 112.641 62.6668 112.422 62.4484C112.204 62.2299 111.949 62.0644 111.658 61.9519C111.373 61.8327 111.062 61.7731 110.724 61.7731C110.387 61.7731 110.072 61.8327 109.781 61.9519C109.496 62.0644 109.245 62.2299 109.026 62.4484C108.808 62.6668 108.639 62.925 108.52 63.2229C108.401 63.5142 108.341 63.8386 108.341 64.1961C108.341 64.5536 108.401 64.8813 108.52 65.1792C108.639 65.4771 108.808 65.7353 109.026 65.9537C109.245 66.1656 109.496 66.3311 109.781 66.4502C110.072 66.5694 110.387 66.629 110.724 66.629Z" fill="white"/>
<path d="M5.57467 78.4561C5.13751 78.4561 4.76394 78.3627 4.45396 78.1759C4.14795 77.9851 3.91547 77.7189 3.7565 77.3771C3.59754 77.0353 3.51805 76.6339 3.51805 76.1729C3.51805 75.7278 3.61145 75.3344 3.79823 74.9926C3.98501 74.6508 4.24134 74.3865 4.56722 74.1998C4.8931 74.009 5.25872 73.9136 5.66408 73.9136C5.97009 73.9136 6.3377 73.9613 6.7669 74.0567L6.96362 74.0925L6.90401 75.1655H6.50461L6.35558 74.4084C6.29994 74.3607 6.20258 74.321 6.06348 74.2892C5.92836 74.2534 5.76145 74.2355 5.56274 74.2355C5.3084 74.2355 5.08187 74.3091 4.88317 74.4561C4.68446 74.5992 4.52748 74.8118 4.41223 75.0939C4.30096 75.3761 4.24532 75.7139 4.24532 76.1073C4.24532 76.4809 4.295 76.8207 4.39435 77.1267C4.4937 77.4327 4.64472 77.6771 4.8474 77.8599C5.05008 78.0388 5.30045 78.1282 5.59851 78.1282C5.80914 78.1282 5.97009 78.1103 6.08137 78.0745C6.19662 78.0388 6.29398 77.9871 6.37347 77.9195L6.62384 77.3354L6.99939 77.383L6.85632 78.2295C6.77287 78.2335 6.64967 78.2613 6.48673 78.313C6.34366 78.3567 6.20457 78.3905 6.06944 78.4143C5.9383 78.4421 5.77337 78.4561 5.57467 78.4561Z" fill="white"/>
<path d="M7.48416 76.7273C7.48416 76.3696 7.55768 76.0597 7.70472 75.7974C7.85176 75.5351 8.04451 75.3364 8.28296 75.2012C8.52538 75.0621 8.7837 74.9926 9.05791 74.9926C9.55865 74.9926 9.93421 75.1516 10.1846 75.4695C10.4389 75.7874 10.5661 76.2047 10.5661 76.7214C10.5661 77.083 10.4926 77.395 10.3455 77.6573C10.1985 77.9195 10.0038 78.1183 9.76133 78.2534C9.52289 78.3885 9.26655 78.4561 8.99234 78.4561C8.4916 78.4561 8.11406 78.2971 7.85971 77.9792C7.60934 77.6612 7.48416 77.2439 7.48416 76.7273ZM9.02811 78.1163C9.30232 78.1163 9.51295 78.003 9.65999 77.7765C9.80704 77.55 9.88056 77.2141 9.88056 76.769C9.88056 76.3279 9.813 75.9782 9.67788 75.7199C9.54276 75.4615 9.32617 75.3324 9.02811 75.3324C8.75389 75.3324 8.54128 75.4457 8.39026 75.6722C8.24322 75.8987 8.16969 76.2345 8.16969 76.6796C8.16969 77.1208 8.23924 77.4705 8.37834 77.7288C8.51743 77.9871 8.73402 78.1163 9.02811 78.1163Z" fill="white"/>
<path d="M11.4686 75.541L11.0394 75.4337V75.1118L11.8919 75.0045H11.9097L12.0349 75.1118V75.3622L12.029 75.5053C12.172 75.3781 12.3608 75.2628 12.5953 75.1595C12.8297 75.0562 13.0543 75.0045 13.2689 75.0045C13.5193 75.0045 13.712 75.0522 13.8471 75.1476C13.9862 75.243 14.0836 75.39 14.1392 75.5887C14.1949 75.7835 14.2227 76.0477 14.2227 76.3816V78.0507L14.64 78.0924V78.3905H13.2272V78.0984L13.5968 78.0507V76.3756C13.5968 76.1411 13.5809 75.9583 13.5491 75.8272C13.5173 75.692 13.4577 75.5927 13.3702 75.5291C13.2828 75.4615 13.1556 75.4278 12.9887 75.4278C12.8456 75.4278 12.6926 75.4635 12.5297 75.5351C12.3668 75.6066 12.2217 75.6901 12.0945 75.7854V78.0447L12.4999 78.0984V78.3905H11.0931V78.0984L11.4686 78.0447V75.541Z" fill="white"/>
<path d="M15.4272 75.541L14.998 75.4337V75.1118L15.8505 75.0045H15.8683L15.9935 75.1118V75.3622L15.9876 75.5053C16.1306 75.3781 16.3194 75.2628 16.5539 75.1595C16.7884 75.0562 17.0129 75.0045 17.2275 75.0045C17.4779 75.0045 17.6706 75.0522 17.8057 75.1476C17.9448 75.243 18.0422 75.39 18.0978 75.5887C18.1535 75.7835 18.1813 76.0477 18.1813 76.3816V78.0507L18.5986 78.0924V78.3905H17.1858V78.0984L17.5554 78.0507V76.3756C17.5554 76.1411 17.5395 75.9583 17.5077 75.8272C17.4759 75.692 17.4163 75.5927 17.3288 75.5291C17.2414 75.4615 17.1142 75.4278 16.9473 75.4278C16.8042 75.4278 16.6512 75.4635 16.4883 75.5351C16.3254 75.6066 16.1803 75.6901 16.0531 75.7854V78.0447L16.4585 78.0984V78.3905H15.0517V78.0984L15.4272 78.0447V75.541Z" fill="white"/>
<path d="M20.4946 78.4561C20.0137 78.4561 19.6461 78.2991 19.3918 77.9851C19.1414 77.6712 19.0162 77.2519 19.0162 76.7273C19.0162 76.3816 19.0818 76.0775 19.2129 75.8152C19.3441 75.553 19.5269 75.3503 19.7614 75.2072C19.9998 75.0641 20.2701 74.9926 20.5721 74.9926C20.9417 74.9926 21.2278 75.0959 21.4305 75.3026C21.6372 75.5053 21.7465 75.7974 21.7584 76.1789C21.7584 76.4213 21.7445 76.6061 21.7166 76.7333H19.666C19.6739 77.1267 19.7654 77.4446 19.9402 77.6871C20.1151 77.9255 20.3635 78.0447 20.6854 78.0447C20.8443 78.0447 21.0093 78.0169 21.1801 77.9613C21.355 77.9017 21.4901 77.8321 21.5855 77.7526L21.6988 78.0149C21.5835 78.1341 21.4126 78.2375 21.1861 78.3249C20.9596 78.4123 20.7291 78.4561 20.4946 78.4561ZM21.1026 76.4173C21.1146 76.3339 21.1205 76.2484 21.1205 76.161C21.1166 75.9027 21.0609 75.7 20.9536 75.553C20.8503 75.4019 20.6854 75.3264 20.4588 75.3264C20.2283 75.3264 20.0435 75.4099 19.9044 75.5768C19.7693 75.7437 19.6918 76.0239 19.672 76.4173H21.1026Z" fill="white"/>
<path d="M22.1992 76.7571C22.1992 76.4273 22.2628 76.1292 22.3899 75.8629C22.5211 75.5967 22.7118 75.386 22.9622 75.231C23.2166 75.0721 23.5206 74.9926 23.8743 74.9926C24.0452 74.9926 24.1922 75.0085 24.3154 75.0403C24.4386 75.0721 24.5856 75.1158 24.7565 75.1714L24.7327 76.0895H24.3452L24.2141 75.4814C24.1902 75.3701 24.0392 75.3145 23.761 75.3145C23.4828 75.3145 23.2623 75.4278 23.0993 75.6543C22.9404 75.8768 22.8609 76.1948 22.8609 76.6081C22.8609 77.077 22.9503 77.4347 23.1291 77.6811C23.3119 77.9235 23.5484 78.0447 23.8385 78.0447C24.0054 78.0447 24.1624 78.0189 24.3094 77.9672C24.4605 77.9156 24.5896 77.854 24.6969 77.7824L24.8102 78.0209C24.7029 78.1322 24.5439 78.2335 24.3333 78.3249C24.1266 78.4123 23.916 78.4561 23.7014 78.4561C23.3755 78.4561 23.0993 78.3825 22.8728 78.2355C22.6502 78.0884 22.4813 77.8878 22.3661 77.6334C22.2548 77.3751 22.1992 77.083 22.1992 76.7571Z" fill="white"/>
<path d="M26.3463 78.4501C26.1198 78.4501 25.9509 78.3984 25.8396 78.2951C25.7284 78.1918 25.6727 78.0149 25.6727 77.7646V75.4755H25.2435V75.2072C25.2634 75.2032 25.319 75.1893 25.4104 75.1655C25.5019 75.1416 25.5634 75.1198 25.5952 75.0999C25.6588 75.0641 25.7085 74.9926 25.7443 74.8853C25.7761 74.8098 25.8138 74.6886 25.8575 74.5217C25.9012 74.3548 25.9271 74.2554 25.935 74.2236H26.2867L26.2987 75.082H27.2942V75.4755H26.2987V77.3055C26.2987 77.5321 26.3046 77.691 26.3165 77.7824C26.3324 77.8738 26.3622 77.9335 26.406 77.9613C26.4537 77.9891 26.5331 78.003 26.6444 78.003C26.7517 78.003 26.8689 77.9891 26.9961 77.9613C27.1273 77.9335 27.2286 77.9036 27.3001 77.8719L27.3896 78.1401C27.2942 78.2116 27.1392 78.2812 26.9246 78.3488C26.714 78.4163 26.5212 78.4501 26.3463 78.4501Z" fill="white"/>
<path d="M28.458 74.4859C28.3308 74.4859 28.2354 74.4501 28.1718 74.3786C28.1082 74.3071 28.0764 74.2157 28.0764 74.1044C28.0764 73.9772 28.1142 73.8719 28.1897 73.7884C28.2692 73.705 28.3765 73.6633 28.5116 73.6633C28.6467 73.6633 28.7461 73.699 28.8097 73.7706C28.8733 73.8421 28.9051 73.9335 28.9051 74.0448C28.9051 74.1799 28.8653 74.2872 28.7858 74.3667C28.7103 74.4462 28.603 74.4859 28.4639 74.4859H28.458ZM28.2195 75.541L27.7665 75.4337V75.1178L28.6905 75.0045H28.7024L28.8395 75.1118V78.0507L29.3164 78.0984V78.3905H27.7367V78.0984L28.2195 78.0447V75.541Z" fill="white"/>
<path d="M30.0973 75.541L29.6681 75.4337V75.1118L30.5206 75.0045H30.5385L30.6637 75.1118V75.3622L30.6577 75.5053C30.8008 75.3781 30.9895 75.2628 31.224 75.1595C31.4585 75.0562 31.683 75.0045 31.8976 75.0045C32.148 75.0045 32.3407 75.0522 32.4759 75.1476C32.6149 75.243 32.7123 75.39 32.768 75.5887C32.8236 75.7835 32.8514 76.0477 32.8514 76.3816V78.0507L33.2687 78.0924V78.3905H31.8559V78.0984L32.2255 78.0507V76.3756C32.2255 76.1411 32.2096 75.9583 32.1778 75.8272C32.146 75.692 32.0864 75.5927 31.999 75.5291C31.9115 75.4615 31.7844 75.4278 31.6174 75.4278C31.4744 75.4278 31.3214 75.4635 31.1584 75.5351C30.9955 75.6066 30.8504 75.6901 30.7233 75.7854V78.0447L31.1286 78.0984V78.3905H29.7218V78.0984L30.0973 78.0447V75.541Z" fill="white"/>
<path d="M35.123 80C34.6143 80 34.2447 79.9185 34.0142 79.7556C33.7877 79.5966 33.6744 79.3761 33.6744 79.0939C33.6744 78.919 33.7281 78.7581 33.8354 78.611C33.9467 78.464 34.0778 78.3527 34.2288 78.2772C34.046 78.1739 33.9546 78.007 33.9546 77.7765C33.9546 77.6334 33.9963 77.4983 34.0798 77.3711C34.1632 77.2439 34.2725 77.1466 34.4077 77.079C34.2089 76.9916 34.0559 76.8664 33.9486 76.7035C33.8453 76.5405 33.7937 76.3478 33.7937 76.1252C33.7937 75.8947 33.8572 75.694 33.9844 75.5231C34.1156 75.3523 34.2864 75.2211 34.4971 75.1297C34.7117 75.0383 34.9382 74.9926 35.1766 74.9926C35.578 74.9926 35.892 75.0761 36.1185 75.243C36.1781 75.1834 36.2695 75.1257 36.3927 75.0701C36.5159 75.0145 36.6471 74.9866 36.7862 74.9866H36.9888V75.5112H36.3331C36.4285 75.6583 36.4762 75.8292 36.4762 76.0239C36.4762 76.2584 36.4166 76.467 36.2974 76.6498C36.1821 76.8287 36.0192 76.9677 35.8085 77.0671C35.6019 77.1665 35.3674 77.2161 35.1051 77.2161C34.9342 77.2161 34.7812 77.1982 34.6461 77.1625C34.5905 77.2181 34.5448 77.2797 34.509 77.3473C34.4732 77.4148 34.4553 77.4804 34.4553 77.544C34.4553 77.6871 34.503 77.7864 34.5984 77.842C34.6938 77.8937 34.8647 77.9195 35.1111 77.9195H35.7847C36.1702 77.9195 36.4563 77.9931 36.6431 78.1401C36.8299 78.2872 36.9233 78.4958 36.9233 78.766C36.9233 78.9926 36.8418 79.1992 36.6789 79.386C36.5159 79.5768 36.2954 79.7258 36.0172 79.8331C35.743 79.9444 35.4449 80 35.123 80ZM35.1647 76.8883C35.6178 76.8883 35.8443 76.62 35.8443 76.0835C35.8443 75.8172 35.7847 75.6225 35.6655 75.4993C35.5502 75.3721 35.3754 75.3085 35.1409 75.3085C34.9223 75.3085 34.7494 75.3701 34.6223 75.4933C34.4951 75.6126 34.4315 75.8053 34.4315 76.0716C34.4315 76.322 34.4911 76.5207 34.6103 76.6677C34.7335 76.8147 34.9183 76.8883 35.1647 76.8883ZM35.1766 79.6543C35.3714 79.6543 35.5542 79.6244 35.7251 79.5648C35.8999 79.5092 36.041 79.4238 36.1483 79.3085C36.2556 79.1972 36.3093 79.0661 36.3093 78.9151C36.3093 78.7362 36.2616 78.6051 36.1662 78.5216C36.0708 78.4421 35.886 78.4024 35.6118 78.4024H34.9084C34.7494 78.4024 34.6242 78.3925 34.5328 78.3726C34.3699 78.5514 34.2884 78.7521 34.2884 78.9747C34.2884 79.1972 34.356 79.3661 34.4911 79.4814C34.6262 79.5966 34.8547 79.6543 35.1766 79.6543Z" fill="white"/>
<path d="M39.2167 79.8748C39.1491 79.8748 39.0816 79.8708 39.014 79.8629C38.9504 79.8549 38.9047 79.843 38.8769 79.8271V79.3085C38.9008 79.3244 38.9465 79.3363 39.014 79.3443C39.0856 79.3522 39.1531 79.3562 39.2167 79.3562C39.4075 79.3562 39.5744 79.2886 39.7174 79.1535C39.8645 79.0224 40.0056 78.768 40.1407 78.3905H39.8546L38.7219 75.4397L38.4477 75.3622V75.082H39.8844V75.3622L39.4253 75.4337L40.0095 77.1923L40.2838 78.0626L40.5401 77.1863L41.0706 75.4337L40.6712 75.3622V75.082H41.8694V75.3622L41.5714 75.4337C40.9872 77.2221 40.6434 78.2375 40.5401 78.4799C40.405 78.8217 40.2818 79.0879 40.1705 79.2787C40.0592 79.4734 39.9281 79.6205 39.7771 79.7198C39.626 79.8232 39.4393 79.8748 39.2167 79.8748Z" fill="white"/>
<path d="M42.1452 76.7273C42.1452 76.3696 42.2188 76.0597 42.3658 75.7974C42.5128 75.5351 42.7056 75.3364 42.944 75.2012C43.1865 75.0621 43.4448 74.9926 43.719 74.9926C44.2197 74.9926 44.5953 75.1516 44.8457 75.4695C45.1 75.7874 45.2272 76.2047 45.2272 76.7214C45.2272 77.083 45.1537 77.395 45.0066 77.6573C44.8596 77.9195 44.6648 78.1183 44.4224 78.2534C44.184 78.3885 43.9276 78.4561 43.6534 78.4561C43.1527 78.4561 42.7751 78.2971 42.5208 77.9792C42.2704 77.6612 42.1452 77.2439 42.1452 76.7273ZM43.6892 78.1163C43.9634 78.1163 44.174 78.003 44.3211 77.7765C44.4681 77.55 44.5416 77.2141 44.5416 76.769C44.5416 76.3279 44.4741 75.9782 44.339 75.7199C44.2038 75.4615 43.9872 75.3324 43.6892 75.3324C43.415 75.3324 43.2024 75.4457 43.0513 75.6722C42.9043 75.8987 42.8308 76.2345 42.8308 76.6796C42.8308 77.1208 42.9003 77.4705 43.0394 77.7288C43.1785 77.9871 43.3951 78.1163 43.6892 78.1163Z" fill="white"/>
<path d="M48.4844 78.4441C48.3731 78.4441 48.2896 78.4223 48.234 78.3786C48.1823 78.3348 48.1565 78.2633 48.1565 78.164V77.9613C48.0253 78.0924 47.8604 78.2077 47.6617 78.307C47.467 78.4064 47.2703 78.4561 47.0716 78.4561C46.702 78.4561 46.4397 78.3567 46.2847 78.158C46.1297 77.9593 46.0522 77.6314 46.0522 77.1744V75.4456L45.7184 75.3503V75.088L46.5529 75.0105H46.5589L46.6722 75.082V77.1267C46.6722 77.3572 46.6881 77.538 46.7198 77.6692C46.7556 77.7963 46.8152 77.8917 46.8987 77.9553C46.9861 78.0149 47.1113 78.0447 47.2742 78.0447C47.4332 78.0447 47.5822 78.0109 47.7213 77.9434C47.8604 77.8758 47.9816 77.7963 48.085 77.7049V75.4456L47.6558 75.3503V75.088L48.5619 75.0105H48.5678L48.7049 75.082V78.0865H49.0626L49.0566 78.3547C48.9454 78.3825 48.848 78.4044 48.7645 78.4203C48.6851 78.4362 48.5917 78.4441 48.4844 78.4441Z" fill="white"/>
<path d="M50.6431 75.082H52.0321V75.3622L51.5791 75.4337L52.0738 77.1863L52.2467 77.9434L52.4196 77.1804L52.9919 75.082H53.5761L54.1662 77.1804L54.3391 77.9493L54.5299 77.1863L55.0127 75.4397L54.5597 75.3622V75.082H55.7698V75.3622L55.4538 75.4397L54.5299 78.4382H53.9695L53.3376 76.3339L53.1826 75.5947L53.0574 76.3339L52.4554 78.4382H51.901L50.9472 75.4337L50.6431 75.3622V75.082Z" fill="white"/>
<path d="M56.6572 74.4859C56.53 74.4859 56.4347 74.4501 56.3711 74.3786C56.3075 74.3071 56.2757 74.2157 56.2757 74.1044C56.2757 73.9772 56.3134 73.8719 56.3889 73.7884C56.4684 73.705 56.5757 73.6633 56.7108 73.6633C56.846 73.6633 56.9453 73.699 57.0089 73.7706C57.0725 73.8421 57.1043 73.9335 57.1043 74.0448C57.1043 74.1799 57.0645 74.2872 56.9851 74.3667C56.9096 74.4462 56.8023 74.4859 56.6632 74.4859H56.6572ZM56.4188 75.541L55.9657 75.4337V75.1178L56.8897 75.0045H56.9016L57.0387 75.1118V78.0507L57.5156 78.0984V78.3905H55.9359V78.0984L56.4188 78.0447V75.541Z" fill="white"/>
<path d="M58.9583 78.4501C58.7317 78.4501 58.5628 78.3984 58.4516 78.2951C58.3403 78.1918 58.2847 78.0149 58.2847 77.7646V75.4755H57.8554V75.2072C57.8753 75.2032 57.931 75.1893 58.0224 75.1655C58.1138 75.1416 58.1754 75.1198 58.2072 75.0999C58.2707 75.0641 58.3204 74.9926 58.3562 74.8853C58.388 74.8098 58.4257 74.6886 58.4695 74.5217C58.5132 74.3548 58.539 74.2554 58.5469 74.2236H58.8987L58.9106 75.082H59.9061V75.4755H58.9106V77.3055C58.9106 77.5321 58.9165 77.691 58.9285 77.7824C58.9444 77.8738 58.9742 77.9335 59.0179 77.9613C59.0656 77.9891 59.1451 78.003 59.2563 78.003C59.3636 78.003 59.4809 77.9891 59.608 77.9613C59.7392 77.9335 59.8405 77.9036 59.9121 77.8719L60.0015 78.1401C59.9061 78.2116 59.7511 78.2812 59.5365 78.3488C59.3259 78.4163 59.1331 78.4501 58.9583 78.4501Z" fill="white"/>
<path d="M60.6884 73.9434L60.1876 73.8779V73.6215L61.1593 73.5083H61.1712L61.3024 73.5977V74.9807L61.2785 75.4874C61.4057 75.3721 61.5806 75.2628 61.8031 75.1595C62.0257 75.0562 62.2502 75.0045 62.4767 75.0045C62.7271 75.0045 62.9218 75.0522 63.0609 75.1476C63.2 75.243 63.2974 75.39 63.353 75.5887C63.4087 75.7835 63.4365 76.0477 63.4365 76.3816V78.0447L63.8538 78.0984V78.3905H62.429V78.0984L62.8165 78.0447V76.3756C62.8165 76.1411 62.8006 75.9583 62.7688 75.8272C62.737 75.692 62.6774 75.5927 62.59 75.5291C62.5026 75.4615 62.3714 75.4278 62.1965 75.4278C62.0535 75.4278 61.9005 75.4635 61.7375 75.5351C61.5746 75.6066 61.4315 75.6901 61.3083 75.7854V78.0447L61.7197 78.0984V78.3905H60.3307V78.0984L60.6884 78.0507V73.9434Z" fill="white"/>
<path d="M66.1934 79.8748C66.1259 79.8748 66.0583 79.8708 65.9908 79.8629C65.9272 79.8549 65.8815 79.843 65.8536 79.8271V79.3085C65.8775 79.3244 65.9232 79.3363 65.9908 79.3443C66.0623 79.3522 66.1299 79.3562 66.1934 79.3562C66.3842 79.3562 66.5511 79.2886 66.6942 79.1535C66.8412 79.0224 66.9823 78.768 67.1174 78.3905H66.8313L65.6987 75.4397L65.4244 75.3622V75.082H66.8611V75.3622L66.4021 75.4337L66.9863 77.1923L67.2605 78.0626L67.5168 77.1863L68.0474 75.4337L67.648 75.3622V75.082H68.8462V75.3622L68.5481 75.4337C67.9639 77.2221 67.6201 78.2375 67.5168 78.4799C67.3817 78.8217 67.2585 79.0879 67.1472 79.2787C67.036 79.4734 66.9048 79.6205 66.7538 79.7198C66.6028 79.8232 66.416 79.8748 66.1934 79.8748Z" fill="white"/>
<path d="M69.122 76.7273C69.122 76.3696 69.1955 76.0597 69.3425 75.7974C69.4896 75.5351 69.6823 75.3364 69.9208 75.2012C70.1632 75.0621 70.4215 74.9926 70.6957 74.9926C71.1965 74.9926 71.572 75.1516 71.8224 75.4695C72.0767 75.7874 72.2039 76.2047 72.2039 76.7214C72.2039 77.083 72.1304 77.395 71.9833 77.6573C71.8363 77.9195 71.6416 78.1183 71.3991 78.2534C71.1607 78.3885 70.9044 78.4561 70.6301 78.4561C70.1294 78.4561 69.7519 78.2971 69.4975 77.9792C69.2472 77.6612 69.122 77.2439 69.122 76.7273ZM70.6659 78.1163C70.9401 78.1163 71.1508 78.003 71.2978 77.7765C71.4448 77.55 71.5184 77.2141 71.5184 76.769C71.5184 76.3279 71.4508 75.9782 71.3157 75.7199C71.1806 75.4615 70.964 75.3324 70.6659 75.3324C70.3917 75.3324 70.1791 75.4457 70.0281 75.6722C69.881 75.8987 69.8075 76.2345 69.8075 76.6796C69.8075 77.1208 69.8771 77.4705 70.0161 77.7288C70.1552 77.9871 70.3718 78.1163 70.6659 78.1163Z" fill="white"/>
<path d="M75.4611 78.4441C75.3498 78.4441 75.2664 78.4223 75.2107 78.3786C75.1591 78.3348 75.1332 78.2633 75.1332 78.164V77.9613C75.0021 78.0924 74.8372 78.2077 74.6384 78.307C74.4437 78.4064 74.247 78.4561 74.0483 78.4561C73.6787 78.4561 73.4164 78.3567 73.2614 78.158C73.1064 77.9593 73.0289 77.6314 73.0289 77.1744V75.4456L72.6951 75.3503V75.088L73.5297 75.0105H73.5356L73.6489 75.082V77.1267C73.6489 77.3572 73.6648 77.538 73.6966 77.6692C73.7323 77.7963 73.792 77.8917 73.8754 77.9553C73.9628 78.0149 74.088 78.0447 74.251 78.0447C74.4099 78.0447 74.559 78.0109 74.6981 77.9434C74.8372 77.8758 74.9584 77.7963 75.0617 77.7049V75.4456L74.6325 75.3503V75.088L75.5386 75.0105H75.5445L75.6817 75.082V78.0865H76.0393L76.0334 78.3547C75.9221 78.3825 75.8247 78.4044 75.7413 78.4203C75.6618 78.4362 75.5684 78.4441 75.4611 78.4441Z" fill="white"/>
<path d="M76.5272 78.0984L76.9743 78.0626V75.541L76.5451 75.4337V75.1118L77.3677 75.0045H77.3796L77.5108 75.1118V75.2191L77.4929 75.6841H77.5108C77.5505 75.6165 77.622 75.5291 77.7254 75.4218C77.8287 75.3145 77.9618 75.2171 78.1248 75.1297C78.2877 75.0383 78.4646 74.9926 78.6553 74.9926C78.7348 74.9926 78.8004 75.0025 78.852 75.0224V75.6901C78.8242 75.6702 78.7785 75.6523 78.7149 75.6364C78.6553 75.6165 78.5878 75.6066 78.5122 75.6066C78.1824 75.6066 77.8764 75.7079 77.5942 75.9106V78.0567L78.3513 78.1043V78.3905H76.5272V78.0984Z" fill="white"/>
<path d="M80.5886 76.7571C80.5886 76.4273 80.6522 76.1292 80.7794 75.8629C80.9105 75.5967 81.1013 75.386 81.3516 75.231C81.606 75.0721 81.91 74.9926 82.2637 74.9926C82.4346 74.9926 82.5816 75.0085 82.7048 75.0403C82.828 75.0721 82.9751 75.1158 83.146 75.1714L83.1221 76.0895H82.7346L82.6035 75.4814C82.5796 75.3701 82.4286 75.3145 82.1504 75.3145C81.8722 75.3145 81.6517 75.4278 81.4887 75.6543C81.3298 75.8768 81.2503 76.1948 81.2503 76.6081C81.2503 77.077 81.3397 77.4347 81.5185 77.6811C81.7014 77.9235 81.9378 78.0447 82.2279 78.0447C82.3948 78.0447 82.5518 78.0189 82.6989 77.9672C82.8499 77.9156 82.979 77.854 83.0863 77.7824L83.1996 78.0209C83.0923 78.1322 82.9333 78.2335 82.7227 78.3249C82.5161 78.4123 82.3054 78.4561 82.0908 78.4561C81.7649 78.4561 81.4887 78.3825 81.2622 78.2355C81.0397 78.0884 80.8708 77.8878 80.7555 77.6334C80.6442 77.3751 80.5886 77.083 80.5886 76.7571Z" fill="white"/>
<path d="M86.4287 78.4441C86.3175 78.4441 86.234 78.4223 86.1784 78.3786C86.1267 78.3348 86.1009 78.2633 86.1009 78.164V77.9613C85.9697 78.0924 85.8048 78.2077 85.6061 78.307C85.4114 78.4064 85.2147 78.4561 85.0159 78.4561C84.6464 78.4561 84.3841 78.3567 84.2291 78.158C84.0741 77.9593 83.9966 77.6314 83.9966 77.1744V75.4456L83.6628 75.3503V75.088L84.4973 75.0105H84.5033L84.6165 75.082V77.1267C84.6165 77.3572 84.6324 77.538 84.6642 77.6692C84.7 77.7963 84.7596 77.8917 84.8431 77.9553C84.9305 78.0149 85.0557 78.0447 85.2186 78.0447C85.3776 78.0447 85.5266 78.0109 85.6657 77.9434C85.8048 77.8758 85.926 77.7963 86.0294 77.7049V75.4456L85.6002 75.3503V75.088L86.5062 75.0105H86.5122L86.6493 75.082V78.0865H87.007L87.001 78.3547C86.8897 78.3825 86.7924 78.4044 86.7089 78.4203C86.6294 78.4362 86.536 78.4441 86.4287 78.4441Z" fill="white"/>
<path d="M88.0373 77.9136C88.077 77.9732 88.1605 78.0269 88.2877 78.0745C88.4188 78.1222 88.5559 78.1461 88.699 78.1461C88.9255 78.1461 89.0924 78.1024 89.1997 78.0149C89.307 77.9275 89.3607 77.8063 89.3607 77.6513C89.3607 77.544 89.3269 77.4506 89.2593 77.3711C89.1918 77.2916 89.0964 77.2221 88.9732 77.1625C88.854 77.0989 88.6811 77.0234 88.4546 76.936C88.1486 76.8207 87.924 76.6836 87.781 76.5246C87.6419 76.3617 87.5723 76.1491 87.5723 75.8868C87.5723 75.7119 87.624 75.5589 87.7273 75.4278C87.8346 75.2966 87.9797 75.1953 88.1625 75.1237C88.3493 75.0482 88.5559 75.0105 88.7824 75.0105C88.9653 75.0105 89.1242 75.0244 89.2593 75.0522C89.3984 75.08 89.5097 75.1078 89.5932 75.1357C89.6766 75.1635 89.7323 75.1814 89.7601 75.1893V75.9285H89.3965L89.2772 75.4874C89.2534 75.4397 89.1898 75.3999 89.0865 75.3682C88.9831 75.3324 88.8679 75.3145 88.7407 75.3145C88.5619 75.3145 88.4168 75.3542 88.3055 75.4337C88.1982 75.5132 88.1446 75.6205 88.1446 75.7556C88.1446 75.8749 88.1724 75.9742 88.2281 76.0537C88.2877 76.1292 88.3612 76.1908 88.4486 76.2385C88.536 76.2862 88.6553 76.3418 88.8063 76.4054L88.9255 76.4531C89.1481 76.5405 89.3289 76.624 89.468 76.7035C89.6071 76.7829 89.7223 76.8883 89.8137 77.0194C89.9091 77.1466 89.9568 77.3036 89.9568 77.4903C89.9568 77.7844 89.8416 78.0189 89.6111 78.1938C89.3845 78.3686 89.0726 78.4561 88.6751 78.4561C88.4804 78.4561 88.2757 78.4302 88.0611 78.3786C87.8505 78.3229 87.6776 78.2673 87.5425 78.2116V77.4486H87.93L88.0373 77.9136Z" fill="white"/>
<path d="M91.512 78.4501C91.2854 78.4501 91.1165 78.3984 91.0053 78.2951C90.894 78.1918 90.8384 78.0149 90.8384 77.7646V75.4755H90.4092V75.2072C90.429 75.2032 90.4847 75.1893 90.5761 75.1655C90.6675 75.1416 90.7291 75.1198 90.7609 75.0999C90.8244 75.0641 90.8741 74.9926 90.9099 74.8853C90.9417 74.8098 90.9794 74.6886 91.0232 74.5217C91.0669 74.3548 91.0927 74.2554 91.1007 74.2236H91.4524L91.4643 75.082H92.4598V75.4755H91.4643V77.3055C91.4643 77.5321 91.4702 77.691 91.4822 77.7824C91.4981 77.8738 91.5279 77.9335 91.5716 77.9613C91.6193 77.9891 91.6988 78.003 91.81 78.003C91.9173 78.003 92.0346 77.9891 92.1617 77.9613C92.2929 77.9335 92.3942 77.9036 92.4658 77.8719L92.5552 78.1401C92.4598 78.2116 92.3048 78.2812 92.0902 78.3488C91.8796 78.4163 91.6868 78.4501 91.512 78.4501Z" fill="white"/>
<path d="M92.9202 76.7273C92.9202 76.3696 92.9937 76.0597 93.1407 75.7974C93.2878 75.5351 93.4805 75.3364 93.719 75.2012C93.9614 75.0621 94.2197 74.9926 94.4939 74.9926C94.9947 74.9926 95.3702 75.1516 95.6206 75.4695C95.8749 75.7874 96.0021 76.2047 96.0021 76.7214C96.0021 77.083 95.9286 77.395 95.7815 77.6573C95.6345 77.9195 95.4398 78.1183 95.1973 78.2534C94.9589 78.3885 94.7026 78.4561 94.4283 78.4561C93.9276 78.4561 93.5501 78.2971 93.2957 77.9792C93.0453 77.6612 92.9202 77.2439 92.9202 76.7273ZM94.4641 78.1163C94.7383 78.1163 94.949 78.003 95.096 77.7765C95.243 77.55 95.3166 77.2141 95.3166 76.769C95.3166 76.3279 95.249 75.9782 95.1139 75.7199C94.9788 75.4615 94.7622 75.3324 94.4641 75.3324C94.1899 75.3324 93.9773 75.4457 93.8263 75.6722C93.6792 75.8987 93.6057 76.2345 93.6057 76.6796C93.6057 77.1208 93.6753 77.4705 93.8143 77.7288C93.9534 77.9871 94.17 78.1163 94.4641 78.1163Z" fill="white"/>
<path d="M96.541 78.0984L96.9046 78.0447V75.541L96.4754 75.4337V75.1118L97.3279 75.0045L97.4352 75.082L97.4709 75.3205L97.465 75.5112C97.6041 75.3841 97.7928 75.2688 98.0313 75.1655C98.2737 75.0582 98.4903 75.0045 98.6811 75.0045C98.8957 75.0045 99.0685 75.0403 99.1997 75.1118C99.3308 75.1834 99.4302 75.2946 99.4977 75.4456C99.6249 75.3383 99.8018 75.239 100.028 75.1476C100.259 75.0522 100.473 75.0045 100.672 75.0045C100.918 75.0045 101.111 75.0522 101.25 75.1476C101.389 75.239 101.487 75.3841 101.542 75.5828C101.602 75.7775 101.632 76.0398 101.632 76.3696V78.0447L102.061 78.0984V78.3905H100.642V78.0984L101.012 78.0447V76.3875C101.012 76.157 100.994 75.9742 100.958 75.8391C100.926 75.7 100.863 75.5967 100.767 75.5291C100.676 75.4615 100.543 75.4278 100.368 75.4278C100.237 75.4278 100.098 75.4576 99.9508 75.5172C99.8037 75.5728 99.6786 75.6404 99.5752 75.7199C99.611 75.8749 99.6289 76.0954 99.6289 76.3816V78.0447L100.052 78.0984V78.3905H98.6095V78.0984L99.003 78.0447V76.3756C99.003 76.1371 98.9871 75.9524 98.9553 75.8212C98.9275 75.6901 98.8718 75.5927 98.7884 75.5291C98.7049 75.4615 98.5777 75.4278 98.4068 75.4278C98.2638 75.4278 98.1108 75.4635 97.9478 75.5351C97.7889 75.6066 97.6498 75.6901 97.5305 75.7854V78.0447L97.9299 78.0984V78.3905H96.541V78.0984Z" fill="white"/>
<path d="M103.945 78.4561C103.465 78.4561 103.097 78.2991 102.843 77.9851C102.592 77.6712 102.467 77.2519 102.467 76.7273C102.467 76.3816 102.533 76.0775 102.664 75.8152C102.795 75.553 102.978 75.3503 103.212 75.2072C103.451 75.0641 103.721 74.9926 104.023 74.9926C104.393 74.9926 104.679 75.0959 104.881 75.3026C105.088 75.5053 105.197 75.7974 105.209 76.1789C105.209 76.4213 105.195 76.6061 105.168 76.7333H103.117C103.125 77.1267 103.216 77.4446 103.391 77.6871C103.566 77.9255 103.814 78.0447 104.136 78.0447C104.295 78.0447 104.46 78.0169 104.631 77.9613C104.806 77.9017 104.941 77.8321 105.036 77.7526L105.15 78.0149C105.034 78.1341 104.864 78.2375 104.637 78.3249C104.41 78.4123 104.18 78.4561 103.945 78.4561ZM104.554 76.4173C104.565 76.3339 104.571 76.2484 104.571 76.161C104.567 75.9027 104.512 75.7 104.404 75.553C104.301 75.4019 104.136 75.3264 103.91 75.3264C103.679 75.3264 103.494 75.4099 103.355 75.5768C103.22 75.7437 103.143 76.0239 103.123 76.4173H104.554Z" fill="white"/>
<path d="M105.734 78.0984L106.181 78.0626V75.541L105.751 75.4337V75.1118L106.574 75.0045H106.586L106.717 75.1118V75.2191L106.699 75.6841H106.717C106.757 75.6165 106.828 75.5291 106.932 75.4218C107.035 75.3145 107.168 75.2171 107.331 75.1297C107.494 75.0383 107.671 74.9926 107.862 74.9926C107.941 74.9926 108.007 75.0025 108.058 75.0224V75.6901C108.031 75.6702 107.985 75.6523 107.921 75.6364C107.862 75.6165 107.794 75.6066 107.719 75.6066C107.389 75.6066 107.083 75.7079 106.801 75.9106V78.0567L107.558 78.1043V78.3905H105.734V78.0984Z" fill="white"/>
<path d="M109.006 77.9136C109.046 77.9732 109.129 78.0269 109.257 78.0745C109.388 78.1222 109.525 78.1461 109.668 78.1461C109.894 78.1461 110.061 78.1024 110.169 78.0149C110.276 77.9275 110.33 77.8063 110.33 77.6513C110.33 77.544 110.296 77.4506 110.228 77.3711C110.161 77.2916 110.065 77.2221 109.942 77.1625C109.823 77.0989 109.65 77.0234 109.424 76.936C109.118 76.8207 108.893 76.6836 108.75 76.5246C108.611 76.3617 108.541 76.1491 108.541 75.8868C108.541 75.7119 108.593 75.5589 108.696 75.4278C108.804 75.2966 108.949 75.1953 109.131 75.1237C109.318 75.0482 109.525 75.0105 109.751 75.0105C109.934 75.0105 110.093 75.0244 110.228 75.0522C110.367 75.08 110.479 75.1078 110.562 75.1357C110.646 75.1635 110.701 75.1814 110.729 75.1893V75.9285H110.365L110.246 75.4874C110.222 75.4397 110.159 75.3999 110.055 75.3682C109.952 75.3324 109.837 75.3145 109.71 75.3145C109.531 75.3145 109.386 75.3542 109.275 75.4337C109.167 75.5132 109.114 75.6205 109.114 75.7556C109.114 75.8749 109.141 75.9742 109.197 76.0537C109.257 76.1292 109.33 76.1908 109.418 76.2385C109.505 76.2862 109.624 76.3418 109.775 76.4054L109.894 76.4531C110.117 76.5405 110.298 76.624 110.437 76.7035C110.576 76.7829 110.691 76.8883 110.783 77.0194C110.878 77.1466 110.926 77.3036 110.926 77.4903C110.926 77.7844 110.811 78.0189 110.58 78.1938C110.353 78.3686 110.042 78.4561 109.644 78.4561C109.449 78.4561 109.245 78.4302 109.03 78.3786C108.819 78.3229 108.647 78.2673 108.511 78.2116V77.4486H108.899L109.006 77.9136Z" fill="white"/>
</svg>
