<svg width="112" height="112" viewBox="0 0 112 112" fill="none" xmlns="http://www.w3.org/2000/svg">
<path d="M56 13.82C47.6535 13.8121 39.4922 16.28 32.5486 20.9115C25.605 25.5431 20.1912 32.1301 16.9921 39.8392C13.793 47.5483 12.9523 56.033 14.5765 64.22C16.2007 72.407 20.2168 79.9282 26.1166 85.8322C32.0163 91.7362 39.5347 95.7576 47.7205 97.3876C55.9064 99.0176 64.3917 98.183 72.1031 94.9894C79.8145 91.7958 86.4053 86.3867 91.0418 79.4464C95.6782 72.5061 98.152 64.3465 98.15 56C98.1474 44.8192 93.7067 34.0966 85.8034 26.1878C77.9002 18.2789 67.1808 13.8306 56 13.82ZM56 94.2C48.4455 94.2079 41.0583 91.9751 34.7729 87.784C28.4876 83.5928 23.5864 77.6318 20.6895 70.6547C17.7926 63.6777 17.03 55.9982 18.4982 48.5877C19.9664 41.1772 23.5995 34.3687 28.9379 29.0233C34.2763 23.6779 41.0801 20.0359 48.4886 18.558C55.8972 17.08 63.5777 17.8326 70.5585 20.7204C77.5393 23.6082 83.5068 28.5015 87.7062 34.7813C91.9055 41.0612 94.148 48.4455 94.15 56C94.1527 66.1234 90.1357 75.8337 82.9821 82.9967C75.8284 90.1598 66.1234 94.1894 56 94.2Z" fill="white"/>
<path d="M50 23.32L49.87 23.55L47.68 27.33L46.68 29.14L44.93 32L42.13 36.84L41.96 37.13L38.24 43.57L32.24 33.16V33.11L32.18 33.17C30.9961 34.4211 29.9065 35.7581 28.92 37.17C28.44 37.8367 27.99 38.5367 27.57 39.27V76.27H32.18V42.89L32.28 43.05L34.4 46.73L35.4 48.53L37.08 51.44L37.65 52.44L38 53L40.84 48.08L41.97 46.08L44.48 41.73L44.94 40.94L47.29 36.87L49.29 33.36L49.83 32.42V90.42H53.44L53.68 90.29L54.61 89.75V22.7C53.0609 22.8005 51.5206 23.0077 50 23.32Z" fill="white"/>
<path d="M77.69 32.07C78.2 31.74 78.69 31.42 79.25 31.12C77.9923 30.023 76.6553 29.0202 75.25 28.12C73.4391 29.2882 71.7447 30.6277 70.19 32.12C69.8167 32.4667 69.4567 32.8267 69.11 33.2C64.0146 38.5329 60.7963 45.3813 59.9428 52.7075C59.0893 60.0338 60.647 67.4386 64.38 73.8C64.9 74.67 65.45 75.52 66.04 76.33C66.9545 77.6271 67.9569 78.86 69.04 80.02C69.39 80.38 69.75 80.75 70.12 81.1C71.6773 82.5893 73.3714 83.9286 75.18 85.1C76.5829 84.1963 77.9197 83.1938 79.18 82.1C78.65 81.8 78.18 81.49 77.62 81.16C73.5404 78.5055 70.1883 74.8742 67.8678 70.5958C65.5473 66.3174 64.3319 61.5272 64.3319 56.66C64.3319 51.7928 65.5473 47.0026 67.8678 42.7242C70.1883 38.4458 73.5404 34.8145 77.62 32.16L77.69 32.07Z" fill="white"/>
<path d="M21.81 27.64L17.87 23.84L18.63 23.05L22.01 23.46L21.65 23.83L21.08 20.51L21.84 19.71L25.78 23.51L24.99 24.33L21.99 21.41L22.38 21.15L22.87 24.55L22.77 24.66L19.4 24.24L19.59 23.89L22.59 26.82L21.81 27.64Z" fill="white"/>
<path d="M26.09 23.21L24.09 17.8L25.26 16.8L30.15 19.89L29.15 20.67L28.15 20.04L26.59 21.3L27.01 22.4L26.09 23.21ZM26.25 20.37L27.32 19.5L25 18L25.24 17.81L26.25 20.37Z" fill="white"/>
<path d="M30.48 19.72L27.54 15.11L28.54 14.5L30 16.81L29.68 16.88L30.11 13.49L31.31 12.72L30.89 16.09L30.51 15.38L34.29 17.32L33.14 18L30.77 16.8L30.64 17.85L31.44 19.11L30.48 19.72Z" fill="white"/>
<path d="M34.73 17.13L32.17 12.29L33.17 11.76L35.74 16.6L34.73 17.13Z" fill="white"/>
<path d="M40.1 14.75C39.7537 14.9058 39.3797 14.9908 39 15C38.654 14.9876 38.3139 14.906 38 14.76C37.6692 14.6176 37.3726 14.4062 37.13 14.14C36.861 13.8515 36.6535 13.5112 36.52 13.14C36.3663 12.7793 36.2847 12.392 36.28 12C36.2826 11.656 36.354 11.316 36.49 11C36.6286 10.6696 36.8367 10.3729 37.1 10.13C37.3533 9.85758 37.6595 9.63979 38 9.49C38.3382 9.3463 38.7026 9.27478 39.07 9.28C39.3931 9.2872 39.712 9.35505 40.01 9.48C40.2823 9.59847 40.5249 9.7761 40.72 10L39.96 10.81C39.773 10.6022 39.5299 10.4529 39.26 10.38C38.9682 10.3009 38.6583 10.322 38.38 10.44C38.097 10.5493 37.8484 10.7323 37.66 10.97C37.4892 11.2007 37.3854 11.4741 37.36 11.76C37.3313 12.1005 37.3827 12.4429 37.51 12.76C37.6268 13.0618 37.8076 13.3348 38.04 13.56C38.2572 13.7599 38.5276 13.8927 38.8186 13.9424C39.1096 13.9921 39.4088 13.9565 39.68 13.84C39.9688 13.7411 40.2156 13.5472 40.38 13.29C40.527 13.0534 40.6001 12.7784 40.59 12.5L41.71 12.59C41.7162 12.8824 41.6581 13.1725 41.54 13.44C41.4068 13.7374 41.2166 14.0058 40.98 14.23C40.7208 14.4555 40.4226 14.6317 40.1 14.75Z" fill="white"/>
<path d="M42.83 13.67L41.45 8.37L43.45 7.84C43.7754 7.74988 44.1162 7.72943 44.45 7.78C44.7565 7.82403 45.0424 7.96002 45.27 8.17C45.5072 8.41018 45.6733 8.71128 45.75 9.04C45.8473 9.36624 45.8473 9.71376 45.75 10.04C45.6492 10.3332 45.4692 10.5928 45.23 10.79L47 12.57L45.77 12.89L43.85 10.89L44.67 11.12L43.41 11.45L43.91 13.37L42.83 13.67ZM43.18 10.5L44.11 10.26C44.2497 10.2216 44.3793 10.1534 44.49 10.06C44.5895 9.97363 44.6595 9.85821 44.69 9.73C44.7301 9.59968 44.7301 9.46032 44.69 9.33C44.6563 9.19443 44.5873 9.07021 44.49 8.97C44.3994 8.87974 44.2849 8.81728 44.16 8.79C44.0194 8.75024 43.8706 8.75024 43.73 8.79L42.8 9L43.18 10.5Z" fill="white"/>
<path d="M47.47 12.51L46.63 7.11L50.27 6.54L50.42 7.54L47.91 7.93L48.1 9.16L50.46 8.79L50.62 9.79L48.25 10.16L48.44 11.4L51 11L51.15 12L47.47 12.51Z" fill="white"/>
<path d="M51.22 11.91L52.8 6.35L54.31 6.27L56.43 11.65L55.19 11.71L54.76 10.62L52.76 10.71L52.45 11.85L51.22 11.91ZM53 9.71L54.37 9.64L53.37 7.1H53.68L53 9.71Z" fill="white"/>
<path d="M57.51 11.75L57.72 7.27L56.34 7.21V6.21L60.23 6.39V7.39L58.86 7.33L58.65 11.8L57.51 11.75Z" fill="white"/>
<path d="M60.49 12L61.11 6.56L62.24 6.69L61.62 12.13L60.49 12Z" fill="white"/>
<path d="M63.92 12.44L63.15 6.71L64.37 7L64.91 11.58H64.66L66.89 7.58L68.12 7.83L65.22 12.83L63.92 12.44Z" fill="white"/>
<path d="M67.48 13.21L69.09 8L72.61 9.09L72.32 10.03L69.89 9.28L69.52 10.47L71.81 11.18L71.52 12.12L69.23 11.42L68.86 12.62L71.29 13.37L70.99 14.31L67.48 13.21Z" fill="white"/>
<path d="M74.49 15.87C74.1922 15.7402 73.9241 15.5508 73.7022 15.3135C73.4804 15.0761 73.3094 14.7959 73.2 14.49C73.094 14.168 73.0599 13.8266 73.1 13.49H74.1C74.0963 13.7987 74.1758 14.1026 74.33 14.37C74.4706 14.6535 74.7084 14.8771 75 15C75.1239 15.0635 75.2608 15.0977 75.4 15.1C75.5113 15.1091 75.6227 15.0847 75.72 15.03C75.8196 14.9788 75.8976 14.8937 75.94 14.79C75.9797 14.6801 75.9797 14.5599 75.94 14.45C75.8906 14.3125 75.8041 14.1913 75.69 14.1L74.87 13.33C74.5604 13.0673 74.3344 12.7196 74.22 12.33C74.1284 11.9958 74.164 11.6395 74.32 11.33C74.4387 11.052 74.637 10.8154 74.89 10.65C75.1476 10.4974 75.4406 10.4146 75.74 10.41C76.0864 10.41 76.4284 10.4887 76.74 10.64C77.0246 10.7669 77.2825 10.9468 77.5 11.17C77.6993 11.385 77.8554 11.6362 77.96 11.91C78.0587 12.1852 78.0929 12.4795 78.06 12.77H77C77.0126 12.5124 76.9538 12.2563 76.83 12.03C76.7031 11.8126 76.5105 11.6411 76.28 11.54C76.1551 11.4792 76.0188 11.4452 75.88 11.44C75.7623 11.431 75.6445 11.4553 75.54 11.51C75.4475 11.5715 75.3746 11.6583 75.33 11.76C75.2853 11.8758 75.2853 12.0042 75.33 12.12C75.3812 12.2594 75.4673 12.3833 75.58 12.48L76.39 13.22C76.6983 13.4839 76.924 13.8311 77.04 14.22C77.1319 14.5533 77.0999 14.9085 76.95 15.22C76.8275 15.496 76.6256 15.7292 76.37 15.89C76.1051 16.0426 75.8057 16.1252 75.5 16.13C75.1485 16.1171 74.804 16.0284 74.49 15.87Z" fill="white"/>
<path d="M77.74 17.44L80 13.56L78.8 12.87L79.3 12.01L82.66 14.01L82.16 14.87L81 14.14L78.73 18L77.74 17.44Z" fill="white"/>
<path d="M82 20.29C81.6682 20.0634 81.4025 19.7529 81.23 19.39C81.0604 19.0605 80.9909 18.6885 81.03 18.32C81.0665 17.9574 81.2013 17.6116 81.42 17.32L83.42 14.52L84.34 15.19L82.34 17.93C82.2143 18.0925 82.1348 18.286 82.11 18.49C82.0822 18.6805 82.11 18.8749 82.19 19.05C82.2659 19.2334 82.3947 19.39 82.56 19.5C82.7159 19.6224 82.903 19.6986 83.1 19.72C83.2922 19.7363 83.4853 19.7019 83.66 19.62C83.8456 19.5337 84.0045 19.3989 84.12 19.23L86.12 16.49L87.04 17.16L85.04 19.96C84.8267 20.2752 84.5236 20.5191 84.17 20.66C83.8289 20.8023 83.4551 20.8473 83.09 20.79C82.689 20.7222 82.313 20.5497 82 20.29Z" fill="white"/>
<path d="M84.4 22L88.07 18L89.4 19.19C89.8061 19.5415 90.1187 19.9881 90.31 20.49C90.4721 20.9385 90.5067 21.4231 90.41 21.89C90.2973 22.3711 90.0632 22.8152 89.73 23.18C89.4045 23.5513 88.9873 23.8306 88.52 23.99C88.059 24.1199 87.571 24.1199 87.11 23.99C86.5944 23.8489 86.1208 23.5846 85.73 23.22L84.4 22ZM85.91 22L86.41 22.45C86.6486 22.6691 86.9369 22.827 87.25 22.91C87.5304 22.9945 87.8296 22.9945 88.11 22.91C88.4141 22.8039 88.6836 22.6172 88.89 22.37C89.1096 22.1372 89.2647 21.8511 89.34 21.54C89.4249 21.263 89.4249 20.967 89.34 20.69C89.226 20.3874 89.0367 20.119 88.79 19.91L88.29 19.46L85.91 22Z" fill="white"/>
<path d="M88.28 25.72L92.28 22.03L93.05 22.87L89.05 26.56L88.28 25.72Z" fill="white"/>
<path d="M91.27 29.42C91.0293 29.1076 90.8526 28.7508 90.75 28.37C90.6477 28.0179 90.6171 27.6488 90.6601 27.2847C90.703 26.9205 90.8186 26.5687 91 26.25C91.1921 25.9174 91.4509 25.628 91.76 25.4C92.0548 25.1654 92.3954 24.9951 92.76 24.9C93.112 24.8054 93.4797 24.785 93.84 24.84C94.1944 24.9022 94.5337 25.0311 94.84 25.22C95.1727 25.4284 95.4642 25.6961 95.7 26.01C95.9356 26.3086 96.1152 26.6474 96.23 27.01C96.3261 27.3683 96.3532 27.7416 96.31 28.11C96.2608 28.4632 96.1418 28.8032 95.96 29.11C95.7652 29.4407 95.5069 29.7296 95.2 29.96C94.7546 30.3055 94.2144 30.5068 93.6516 30.5372C93.0887 30.5676 92.53 30.4255 92.05 30.13C91.7501 29.9413 91.486 29.7009 91.27 29.42ZM92.09 28.8C92.2312 28.9926 92.4119 29.1528 92.62 29.27C92.8141 29.3846 93.0277 29.4626 93.25 29.5C93.4776 29.5333 93.7097 29.5163 93.93 29.45C94.1698 29.3852 94.3942 29.273 94.59 29.12C94.7886 28.9725 94.9582 28.7894 95.09 28.58C95.209 28.3843 95.2872 28.1666 95.32 27.94C95.3647 27.7155 95.3647 27.4845 95.32 27.26C95.2541 27.0317 95.1455 26.8179 95 26.63C94.7207 26.2529 94.3038 26.0013 93.84 25.93C93.6155 25.8855 93.3845 25.8855 93.16 25.93C92.9254 26.0051 92.7055 26.1201 92.51 26.27C92.3078 26.4166 92.1348 26.5997 92 26.81C91.77 27.206 91.7053 27.6767 91.82 28.12C91.8628 28.3627 91.9546 28.5941 92.09 28.8Z" fill="white"/>
<path d="M99.61 49C99.5348 48.6338 99.5348 48.2562 99.61 47.89C99.6884 47.5288 99.8417 47.1882 100.06 46.89C100.271 46.5979 100.54 46.3527 100.85 46.17C101.175 45.9651 101.54 45.8321 101.92 45.78C102.3 45.7058 102.69 45.7058 103.07 45.78C103.428 45.8527 103.768 45.9955 104.07 46.2C104.365 46.4156 104.614 46.6874 104.802 46.9998C104.991 47.3122 105.116 47.659 105.17 48.02C105.246 48.3794 105.246 48.7506 105.17 49.11C105.1 49.4263 104.967 49.7255 104.78 49.99C104.612 50.2345 104.39 50.4365 104.13 50.58L103.49 49.66C103.739 49.53 103.939 49.323 104.06 49.07C104.192 48.7968 104.234 48.4886 104.18 48.19C104.14 47.8942 104.015 47.6164 103.82 47.39C103.629 47.171 103.379 47.0113 103.1 46.93C102.776 46.8288 102.432 46.8116 102.1 46.88C101.778 46.9286 101.47 47.0481 101.2 47.23C100.965 47.4001 100.781 47.632 100.67 47.9C100.558 48.1792 100.527 48.484 100.58 48.78C100.623 49.0684 100.755 49.3362 100.958 49.5459C101.16 49.7557 101.423 49.897 101.71 49.95L101.39 51.02C101.099 50.9692 100.825 50.8492 100.59 50.67C100.329 50.482 100.108 50.244 99.94 49.97C99.7686 49.6709 99.6566 49.3415 99.61 49Z" fill="white"/>
<path d="M100.14 54.67C100.127 54.2755 100.188 53.8821 100.32 53.51C100.444 53.1642 100.638 52.8476 100.89 52.58C101.138 52.3083 101.437 52.0876 101.77 51.93C102.12 51.7744 102.497 51.6895 102.88 51.68C103.261 51.6682 103.642 51.7293 104 51.86C104.343 51.9941 104.655 52.1946 104.92 52.45C105.182 52.7078 105.392 53.0133 105.54 53.35C105.692 53.7151 105.777 54.1047 105.79 54.5C105.803 54.8913 105.742 55.2815 105.61 55.65C105.486 55.9987 105.292 56.3186 105.04 56.59C104.796 56.8639 104.496 57.0822 104.16 57.23C103.812 57.3924 103.434 57.4777 103.05 57.48C102.682 57.4932 102.315 57.4318 101.971 57.2995C101.628 57.1671 101.314 56.9666 101.05 56.71C100.787 56.453 100.576 56.1473 100.43 55.81C100.256 55.454 100.157 55.0659 100.14 54.67ZM101.14 54.67C101.142 54.9078 101.193 55.1427 101.29 55.36C101.38 55.5685 101.513 55.7559 101.68 55.91C101.848 56.0644 102.045 56.1834 102.26 56.26C102.494 56.3433 102.742 56.3806 102.99 56.37C103.237 56.3627 103.481 56.312 103.71 56.22C103.918 56.123 104.107 55.9911 104.27 55.83C104.422 55.6606 104.541 55.4637 104.62 55.25C104.703 55.0299 104.741 54.7951 104.73 54.56C104.723 54.3227 104.672 54.0888 104.58 53.87C104.493 53.6599 104.359 53.472 104.19 53.32C104.024 53.1611 103.826 53.0385 103.61 52.96C103.376 52.876 103.128 52.8386 102.88 52.85C102.633 52.8573 102.389 52.908 102.16 53C101.949 53.0947 101.758 53.2307 101.6 53.4C101.446 53.5641 101.327 53.7581 101.25 53.97C101.181 54.1862 101.154 54.4136 101.17 54.64L101.14 54.67Z" fill="white"/>
<path d="M100.25 58.21L105.7 58.75L105.61 59.62L101.46 62.16L101.4 61.68L105.4 62.08L105.28 63.21L99.84 62.67L99.92 61.79L104.09 59.3L104.16 59.74L100.16 59.34L100.25 58.21Z" fill="white"/>
<path d="M99.67 63.51L105 64.7L104.81 65.56L100.39 67.56V67.1L104.27 67.97L104 69.08L98.65 67.89L98.84 67.02L103.28 65.02V65.46L99.36 64.58L99.67 63.51Z" fill="white"/>
<path d="M98.44 68.69L103.62 70.45L102.44 73.94L101.5 73.62L102.32 71.21L101.14 70.81L100.37 73.08L99.43 72.76L100.2 70.49L99 70.09L98.18 72.5L97.24 72.18L98.44 68.69Z" fill="white"/>
<path d="M95.89 75C96.0492 74.6627 96.2735 74.3603 96.55 74.11C96.8134 73.8675 97.1229 73.6805 97.46 73.56C97.801 73.4446 98.1604 73.3938 98.52 73.41C98.9052 73.4344 99.2821 73.5328 99.63 73.7C99.9812 73.8597 100.297 74.0874 100.56 74.37C100.811 74.6263 101.006 74.9331 101.13 75.27C101.243 75.5911 101.297 75.9298 101.29 76.27C101.268 76.6448 101.173 77.0117 101.01 77.35C100.859 77.6815 100.645 77.9804 100.38 78.23C100.14 78.4486 99.8622 78.6215 99.56 78.74C99.2817 78.8406 98.9846 78.8781 98.69 78.85V77.76C98.9669 77.7925 99.2469 77.7365 99.49 77.6C99.7595 77.455 99.9712 77.2221 100.09 76.94C100.224 76.6743 100.279 76.376 100.25 76.08C100.211 75.7925 100.097 75.5202 99.92 75.29C99.7132 75.0423 99.4535 74.8441 99.16 74.71C98.8673 74.5678 98.5454 74.4959 98.22 74.5C97.9241 74.4966 97.6341 74.5826 97.3879 74.7468C97.1416 74.9109 96.9507 75.1456 96.84 75.42C96.6962 75.6895 96.6502 76.0005 96.71 76.3C96.7665 76.5731 96.9021 76.8235 97.1 77.02L96.23 77.73C96.0257 77.519 95.8688 77.2666 95.77 76.99C95.6614 76.6856 95.6138 76.3628 95.63 76.04C95.6535 75.6805 95.7416 75.3282 95.89 75Z" fill="white"/>
<path d="M94.14 78.48L98 80.8L98.72 79.62L99.57 80.13L97.57 83.46L96.72 82.94L97.43 81.77L93.6 79.45L94.14 78.48Z" fill="white"/>
<path d="M92.55 81L97 84.13L96.35 85.06L91.87 81.91L92.55 81Z" fill="white"/>
<path d="M91.41 82.65L95.62 86.16L95.05 86.83L90.2 86.6L90.42 86.17L93.42 88.73L92.69 89.6L88.49 86.09L89.06 85.41L94 85.7L93.81 86.1L90.73 83.53L91.41 82.65Z" fill="white"/>
<path d="M86 88.45C86.2698 88.1888 86.5895 87.9847 86.94 87.85C87.2802 87.7301 87.6393 87.6725 88 87.68C88.363 87.6939 88.7197 87.7789 89.05 87.93C89.3984 88.094 89.711 88.3251 89.97 88.61C90.2406 88.8991 90.4514 89.239 90.59 89.61C90.7205 89.9445 90.7851 90.301 90.78 90.66C90.7666 91.0059 90.685 91.3457 90.54 91.66C90.3822 92.001 90.1578 92.307 89.88 92.56C89.6175 92.8182 89.3042 93.0191 88.96 93.15C88.6413 93.2718 88.3008 93.3263 87.96 93.31C87.6677 93.3045 87.3805 93.2327 87.12 93.1L87.52 92.1C87.7688 92.2301 88.0511 92.2824 88.33 92.25C88.6295 92.212 88.9077 92.0747 89.12 91.86C89.3411 91.667 89.502 91.4145 89.5836 91.1326C89.6651 90.8507 89.6639 90.5512 89.58 90.27C89.4788 89.9611 89.3116 89.6778 89.09 89.44C88.8714 89.1974 88.5968 89.012 88.29 88.9C88.0143 88.8012 87.7167 88.7804 87.43 88.84C87.1368 88.9068 86.8672 89.0519 86.65 89.26C86.4732 89.4238 86.3304 89.6209 86.23 89.84C86.1427 90.0519 86.1084 90.2819 86.13 90.51C86.1631 90.7399 86.2681 90.9534 86.43 91.12L86.74 91.45H86.06L87.51 90.09L88.16 90.79L86.26 92.57L85.86 92.14C85.5831 91.8538 85.3686 91.5133 85.23 91.14C85.1142 90.8202 85.0698 90.4788 85.1 90.14C85.1256 89.8167 85.2212 89.5028 85.38 89.22C85.5367 88.9268 85.747 88.6657 86 88.45Z" fill="white"/>
<path d="M81.54 92.18L82.89 94.18L86.14 95.68L85.07 96.42L82.67 95.26L83.05 95L83.28 97.66L82.21 98.39L82 94.8L80.64 92.8L81.54 92.18Z" fill="white"/>
<path d="M76.44 95.19C76.7887 95.0075 77.1687 94.8921 77.56 94.85C77.9263 94.8077 78.2975 94.8417 78.65 94.95C79.0125 95.0556 79.3517 95.2286 79.65 95.46C79.9464 95.6917 80.1923 95.9816 80.3725 96.3118C80.5528 96.642 80.6637 97.0055 80.6983 97.3801C80.733 97.7547 80.6907 98.1325 80.574 98.4902C80.4574 98.8478 80.2688 99.1779 80.02 99.46C79.7633 99.7605 79.4509 100.008 79.1 100.19C78.7526 100.376 78.372 100.491 77.98 100.53C77.6137 100.573 77.2424 100.539 76.89 100.43C76.5237 100.334 76.1826 100.16 75.89 99.92C75.5959 99.6741 75.3544 99.3714 75.18 99.03C75.0059 98.7114 74.8971 98.3612 74.86 98C74.8239 97.6176 74.8717 97.232 75 96.87C75.107 96.5021 75.2911 96.1612 75.54 95.87C75.7943 95.5885 76.0997 95.3577 76.44 95.19ZM76.92 96.1C76.7139 96.1993 76.5298 96.339 76.3786 96.5108C76.2275 96.6826 76.1123 96.8829 76.04 97.1C75.9709 97.3196 75.9471 97.5509 75.97 97.78C75.9972 98.0254 76.0719 98.2632 76.19 98.48C76.2978 98.7027 76.4511 98.9002 76.64 99.06C76.8115 99.2154 77.017 99.3284 77.24 99.39C77.4553 99.4632 77.6842 99.4871 77.91 99.46C78.144 99.4365 78.3714 99.3687 78.58 99.26C78.7908 99.147 78.9803 98.9981 79.14 98.82C79.2855 98.6445 79.3948 98.4419 79.4618 98.2239C79.5287 98.006 79.5519 97.7769 79.53 97.55C79.5065 97.3052 79.4351 97.0674 79.32 96.85C79.2028 96.6306 79.0469 96.4341 78.86 96.27C78.6908 96.1168 78.4891 96.004 78.27 95.94C78.0536 95.8719 77.8258 95.8481 77.6 95.87C77.3607 95.9025 77.1299 95.9806 76.92 96.1Z" fill="white"/>
<path d="M71.21 97.5C71.5846 97.3521 71.9912 97.3039 72.39 97.36C72.756 97.4127 73.1002 97.5658 73.3845 97.8024C73.6687 98.0389 73.8817 98.3496 74 98.7L75.2 101.95L74.12 102.34L73 99.16C72.9312 98.967 72.8142 98.7949 72.66 98.66C72.5177 98.5291 72.3406 98.4423 72.15 98.41C71.955 98.3719 71.7531 98.3928 71.57 98.47C71.3808 98.5299 71.2137 98.6448 71.09 98.8C70.9678 98.9494 70.8884 99.1291 70.86 99.32C70.8293 99.5194 70.8535 99.7234 70.93 99.91L72.1 103.1L71.03 103.49L69.83 100.24C69.6922 99.887 69.6575 99.502 69.73 99.13C69.8028 98.7574 69.9756 98.4117 70.23 98.13C70.501 97.8439 70.8373 97.6278 71.21 97.5Z" fill="white"/>
<path d="M66.22 99.16L68.61 104.28L67.4 104.5L65.51 100.19L65.84 100.13L65.54 104.84L64.38 105.06L62.44 100.75L62.76 100.69L62.53 105.4L61.31 105.62L61.74 99.98L63.04 99.74L65 103.87L64.62 103.94L64.96 99.39L66.22 99.16Z" fill="white"/>
<path d="M59.87 100.13L60.28 105.59L59.14 105.67L58.73 100.21L59.87 100.13Z" fill="white"/>
<path d="M56.87 100.29V104.77H58.3V105.77H54.4V104.77H55.77V100.29H56.87Z" fill="white"/>
<path d="M53.9 100.3L53.37 105.75L52.24 105.64L52.46 103.29L50.34 103.08L50.12 105.44L49 105.33L49.53 99.88L50.66 99.99L50.46 102.1L52.58 102.3L52.78 100.19L53.9 100.3Z" fill="white"/>
<path d="M46 99.18L45.44 101.5L46.44 104.93L45.18 104.62L44.44 102.06L44.89 102.16L43.07 104.16L41.8 103.86L44.29 101.29L44.86 98.96L46 99.18Z" fill="white"/>
<path d="M40.42 97.4C40.7909 97.5295 41.1312 97.7337 41.42 98C41.6924 98.2501 41.9161 98.5485 42.08 98.88C42.2322 99.2135 42.3171 99.5737 42.33 99.94C42.3557 100.507 42.2114 101.069 41.9157 101.554C41.6199 102.038 41.1861 102.424 40.67 102.66C40.3289 102.808 39.9617 102.886 39.59 102.89C39.1975 102.896 38.8075 102.828 38.44 102.69C38.0709 102.552 37.7315 102.345 37.44 102.08C37.1712 101.829 36.9509 101.531 36.79 101.2C36.64 100.886 36.5517 100.547 36.53 100.2C36.5059 99.7918 36.5672 99.3831 36.71 99C36.8383 98.647 37.0364 98.3234 37.2924 98.0486C37.5484 97.7737 37.857 97.5531 38.2 97.4C38.5407 97.2497 38.9077 97.1682 39.28 97.16C39.6724 97.1612 40.0604 97.2429 40.42 97.4ZM40.06 98.4C39.841 98.312 39.6059 98.2711 39.37 98.28C39.1427 98.2894 38.919 98.3403 38.71 98.43C38.501 98.5239 38.3138 98.6601 38.16 98.83C37.9932 99.0168 37.8642 99.2341 37.78 99.47C37.6873 99.69 37.6396 99.9263 37.6396 100.165C37.6396 100.404 37.6873 100.64 37.78 100.86C37.8741 101.066 38.0104 101.25 38.18 101.4C38.3521 101.561 38.5567 101.684 38.78 101.76C39.0037 101.845 39.2408 101.889 39.48 101.89C39.7042 101.882 39.9248 101.831 40.13 101.74C40.337 101.643 40.5236 101.507 40.68 101.34C40.8445 101.155 40.9734 100.942 41.06 100.71C41.1506 100.477 41.1948 100.229 41.19 99.98C41.1914 99.7482 41.1401 99.5191 41.04 99.31C40.9471 99.1059 40.8145 98.9223 40.65 98.77C40.4832 98.5947 40.2825 98.4551 40.06 98.36V98.4Z" fill="white"/>
<path d="M35.21 95C35.5671 95.1862 35.8728 95.4575 36.1 95.79C36.3044 96.0858 36.4254 96.4313 36.45 96.79C36.4931 97.2094 36.4058 97.632 36.2 98L34.57 101L33.57 100.46L35.16 97.46C35.2574 97.2821 35.309 97.0828 35.31 96.88C35.3125 96.6894 35.2604 96.502 35.16 96.34C35.0513 96.1701 34.8995 96.0321 34.72 95.94C34.5468 95.8411 34.3493 95.7926 34.15 95.8C33.9603 95.8109 33.7771 95.8732 33.62 95.98C33.4497 96.0925 33.3118 96.2477 33.22 96.43L31.62 99.43L30.62 98.89L32.25 95.83C32.416 95.4876 32.6761 95.1997 33 95C33.3195 94.8166 33.6816 94.7201 34.05 94.72C34.4539 94.7159 34.8525 94.8121 35.21 95Z" fill="white"/>
<path d="M32.55 93.66L29.45 98.17L27.72 97C27.4304 96.8144 27.1875 96.5646 27.01 96.27C26.8432 96.0112 26.7594 95.7077 26.77 95.4C26.7939 95.0612 26.9116 94.7357 27.11 94.46C27.2909 94.1793 27.5523 93.9598 27.86 93.83C28.1467 93.707 28.4635 93.6722 28.77 93.73L29 91.2L30.06 91.93L29.8 94.69L29.44 93.91L30.51 94.65L31.61 93L32.55 93.66ZM29.92 95.47L29.13 94.92C29.0099 94.8382 28.8734 94.7836 28.73 94.76C28.6004 94.7496 28.4701 94.7701 28.35 94.82C28.2278 94.8817 28.1242 94.9749 28.05 95.09C27.9674 95.2004 27.9188 95.3324 27.91 95.47C27.8983 95.6007 27.9225 95.7321 27.98 95.85C28.0527 95.9766 28.1558 96.0832 28.28 96.16L29.07 96.71L29.92 95.47Z" fill="white"/>
<path d="M25.77 88.29C26.0496 88.5375 26.2744 88.8406 26.43 89.18C26.5812 89.4931 26.6695 89.8329 26.69 90.18C26.703 90.5378 26.6452 90.8946 26.52 91.23C26.2447 91.9698 25.7025 92.5799 25 92.94C24.3335 93.2387 23.5773 93.2681 22.8895 93.0221C22.2018 92.7761 21.6359 92.2737 21.31 91.62C21.1652 91.3305 21.0834 91.0135 21.07 90.69C21.0487 90.3963 21.0966 90.1018 21.21 89.83L22.28 90.14C22.1735 90.3996 22.1456 90.6847 22.2 90.96C22.2661 91.2568 22.4277 91.5238 22.66 91.72C22.8758 91.9261 23.1467 92.065 23.44 92.12C23.7322 92.158 24.0293 92.1165 24.3 92C24.6015 91.8745 24.8689 91.6791 25.08 91.43C25.3007 91.1932 25.4648 90.9094 25.56 90.6C25.6397 90.3223 25.6397 90.0277 25.56 89.75C25.4735 89.4628 25.307 89.2061 25.08 89.01C24.8587 88.7999 24.5737 88.6697 24.27 88.64C23.993 88.6054 23.7123 88.6615 23.47 88.8L23.05 87.8C23.3097 87.6626 23.5965 87.584 23.89 87.57C24.2137 87.5519 24.5376 87.603 24.84 87.72C25.1853 87.8453 25.5017 88.0392 25.77 88.29Z" fill="white"/>
<path d="M22.26 84.61C22.5268 84.9119 22.7126 85.2766 22.8 85.67C22.8847 86.0309 22.8674 86.4083 22.75 86.76C22.6333 87.1183 22.4143 87.4347 22.12 87.67L19.48 89.92L18.74 89.05L21.33 86.85C21.4838 86.7207 21.6039 86.556 21.68 86.37C21.7472 86.187 21.764 85.9894 21.7289 85.7977C21.6937 85.606 21.6077 85.4272 21.48 85.28C21.3577 85.1211 21.1905 85.0027 21 84.94C20.8167 84.8898 20.6233 84.8898 20.44 84.94C20.2399 84.9765 20.0533 85.0663 19.9 85.2L17.31 87.41L16.57 86.54L19.21 84.29C19.4943 84.0433 19.8397 83.8775 20.21 83.81C20.5785 83.7583 20.954 83.8031 21.3 83.94C21.67 84.0814 21.9997 84.3115 22.26 84.61Z" fill="white"/>
<path d="M19.26 80.65C19.4475 80.9205 19.5769 81.227 19.64 81.55C19.7179 81.8788 19.7179 82.2212 19.64 82.55C19.5693 82.8618 19.4329 83.155 19.24 83.41L18.37 82.87C18.5358 82.6098 18.6259 82.3085 18.63 82C18.6432 81.7107 18.5586 81.4254 18.39 81.19C18.3207 81.0727 18.2248 80.9734 18.11 80.9C18.0143 80.837 17.9042 80.7991 17.79 80.79C17.6834 80.7903 17.5792 80.8216 17.49 80.88C17.3873 80.9436 17.3123 81.0436 17.28 81.16C17.2418 81.3008 17.2418 81.4492 17.28 81.59L17.59 82.67C17.6984 83.0491 17.6984 83.4509 17.59 83.83C17.4995 84.1607 17.2892 84.4459 17 84.63C16.7543 84.8052 16.4617 84.9027 16.16 84.91C15.8605 84.9165 15.5654 84.8367 15.31 84.68C15.0154 84.5025 14.7656 84.2596 14.58 83.97C14.4078 83.7142 14.2825 83.4297 14.21 83.13C14.1551 82.8426 14.1551 82.5474 14.21 82.26C14.2712 81.9706 14.394 81.6977 14.57 81.46L15.44 82C15.2898 82.2068 15.2061 82.4545 15.2 82.71C15.1977 82.9638 15.2746 83.212 15.42 83.42C15.4927 83.5347 15.5879 83.6333 15.7 83.71C15.7972 83.7774 15.9118 83.8156 16.03 83.82C16.1397 83.8194 16.247 83.7882 16.34 83.73C16.4434 83.6626 16.5182 83.5593 16.55 83.44C16.5886 83.2959 16.5886 83.1441 16.55 83L16.25 81.94C16.1232 81.5697 16.1025 81.1714 16.19 80.79C16.2822 80.4601 16.4921 80.1755 16.78 79.99C17.028 79.8219 17.3204 79.7314 17.62 79.73C17.9231 79.7305 18.2204 79.8134 18.48 79.97C18.7871 80.1362 19.0535 80.3684 19.26 80.65Z" fill="white"/>
<path d="M17.28 77.59L13.28 79.73L14 81L13.12 81.47L11.27 78L12.14 77.52L12.79 78.72L16.73 76.59L17.28 77.59Z" fill="white"/>
<path d="M15 72.64C15.1558 73 15.2374 73.3877 15.24 73.78C15.2324 74.1523 15.1508 74.5195 15 74.86C14.8598 75.2012 14.6523 75.5106 14.39 75.77C14.1181 76.0382 13.795 76.2491 13.44 76.39C13.0893 76.5395 12.7113 76.6144 12.33 76.61C11.9554 76.6121 11.5844 76.5368 11.2402 76.3888C10.896 76.2408 10.5862 76.0234 10.33 75.75C10.0512 75.4653 9.83645 75.1244 9.7 74.75C9.54499 74.3862 9.46343 73.9954 9.46 73.6C9.45418 72.8523 9.74553 72.1329 10.27 71.6C10.5419 71.3318 10.865 71.1209 11.22 70.98C11.5748 70.8334 11.9562 70.7619 12.34 70.77C12.7057 70.7701 13.0672 70.8485 13.4 71C13.7442 71.1439 14.0542 71.3585 14.31 71.63C14.6069 71.9157 14.8418 72.2595 15 72.64ZM14.05 73.03C13.9654 72.8063 13.8361 72.6021 13.67 72.43C13.5092 72.2689 13.3191 72.1399 13.11 72.05C12.898 71.961 12.6699 71.9167 12.44 71.92C12.1925 71.9226 11.9479 71.9736 11.72 72.07C11.4903 72.1592 11.2799 72.2916 11.1 72.46C10.9349 72.6196 10.8024 72.8098 10.71 73.02C10.6236 73.2293 10.5795 73.4536 10.58 73.68C10.5843 73.9198 10.6317 74.1569 10.72 74.38C10.8045 74.6008 10.9339 74.8017 11.1 74.97C11.2582 75.1342 11.4489 75.2636 11.66 75.35C11.8681 75.4414 12.0927 75.489 12.32 75.49C12.5676 75.4884 12.8124 75.4374 13.04 75.34C13.2751 75.2511 13.4895 75.115 13.67 74.94C13.8372 74.7822 13.9699 74.5915 14.06 74.38C14.1433 74.1698 14.1874 73.9461 14.19 73.72C14.1908 73.4732 14.1432 73.2286 14.05 73V73.03Z" fill="white"/>
<path d="M13.64 69.38L8.32 70.68L8.06 69.61L10.21 67L10.34 67.5L7.22 66.19L7 65.12L12.32 63.81L12.59 64.92L8.49 65.92V65.46L11.63 66.86V67L9.46 69.63L9.27 69.28L13.37 68.28L13.64 69.38Z" fill="white"/>
<path d="M12.2 63L6.77 63.65L6.33 60L7.33 59.88L7.63 62.4L8.87 62.25L8.58 59.88L9.58 59.76L9.87 62.14L11.08 62L10.78 59.47L11.78 59.35L12.2 63Z" fill="white"/>
<path d="M11.72 58.79L6.25 58.89V56.8C6.23603 56.4575 6.29748 56.1161 6.43 55.8C6.54738 55.5159 6.74557 55.2725 7 55.1C7.29629 54.9063 7.64648 54.8117 8 54.83C8.35044 54.8007 8.70102 54.8849 9 55.07C9.26667 55.2278 9.47666 55.4658 9.6 55.75L11.76 54.46V55.74L9.28 57.13L9.7 56.39V57.69H11.7L11.72 58.79ZM8.72 57.71V56.71C8.72124 56.564 8.68692 56.4198 8.62 56.29C8.55676 56.1767 8.46328 56.0832 8.35 56.02C8.23727 55.9819 8.11634 55.975 8 56C7.85977 55.9936 7.72073 56.0284 7.6 56.1C7.48904 56.1674 7.39902 56.2644 7.34 56.38C7.27764 56.5111 7.24682 56.6549 7.25 56.8V57.8L8.72 57.71Z" fill="white"/>
<path d="M11.94 52.06C11.913 52.3881 11.8213 52.7076 11.67 53C11.5237 53.2835 11.3187 53.5327 11.0687 53.731C10.8187 53.9293 10.5294 54.0721 10.22 54.15L9.88 53.15C10.1712 53.0496 10.4325 52.8777 10.64 52.65C10.836 52.4441 10.9619 52.1817 11 51.9C11.0315 51.7652 11.0315 51.6248 11 51.49C10.9704 51.3803 10.9075 51.2825 10.82 51.21C10.7395 51.1386 10.6374 51.0964 10.53 51.09C10.4709 51.08 10.4103 51.0819 10.3519 51.0957C10.2935 51.1094 10.2385 51.1347 10.19 51.17C10.082 51.2648 9.99951 51.3851 9.95 51.52L9.5 52.52C9.35984 52.8875 9.1211 53.2093 8.81 53.45C8.52017 53.6566 8.16294 53.7459 7.81 53.7C7.50814 53.6761 7.21975 53.565 6.98 53.38C6.74328 53.1992 6.56574 52.9521 6.47 52.67C6.35725 52.3495 6.31629 52.0081 6.35 51.67C6.3694 51.3672 6.44931 51.0714 6.585 50.8C6.72069 50.5286 6.90941 50.2872 7.14 50.09C7.36815 49.9042 7.63448 49.771 7.92 49.7L8.25 50.7C8.00446 50.7722 7.78544 50.9147 7.62 51.11C7.45662 51.3011 7.35852 51.5393 7.34 51.79C7.31382 51.9254 7.31382 52.0646 7.34 52.2C7.3731 52.311 7.43524 52.4111 7.52 52.49C7.60881 52.5605 7.7169 52.6023 7.83 52.61C7.95035 52.6204 8.07056 52.5886 8.17 52.52C8.28447 52.4228 8.37368 52.2992 8.43 52.16L8.85 51.16C8.99046 50.7953 9.2251 50.4744 9.53 50.23C9.82164 50.0279 10.1784 49.9422 10.53 49.99C10.8308 50.005 11.1185 50.1173 11.35 50.31C11.5913 50.5011 11.772 50.7582 11.87 51.05C11.9738 51.3762 11.9978 51.7226 11.94 52.06Z" fill="white"/>
<path fill-rule="evenodd" clip-rule="evenodd" d="M56 4C27.2812 4 4 27.2812 4 56C4 84.7188 27.2812 108 56 108C84.7188 108 108 84.7188 108 56C108 27.2812 84.7188 4 56 4ZM0 56C0 25.0721 25.0721 0 56 0C86.9279 0 112 25.0721 112 56C112 86.9279 86.9279 112 56 112C25.0721 112 0 86.9279 0 56Z" fill="white"/>
</svg>
