<svg width="32" height="32" viewBox="0 0 32 32" fill="none" xmlns="http://www.w3.org/2000/svg">
<path d="M16 0C24.8366 0 32 7.16344 32 16C32 24.8366 24.8366 32 16 32C7.16344 32 0 24.8366 0 16C0 7.16344 7.16344 0 16 0ZM16 29.2174C23.2997 29.2174 29.2174 23.2998 29.2174 16C29.2174 8.70022 23.2998 2.78259 16 2.78259C8.70025 2.78259 2.78259 8.70022 2.78259 16C2.79128 23.2962 8.70372 29.2087 15.9992 29.2174L16 29.2174ZM20.921 29.3482C20.4026 24.9347 19.3793 20.9142 17.8972 17.1237L18.0118 17.4567V17.4483C17.2824 15.5114 16.5651 13.9282 15.7622 12.3968L15.8803 12.6442V12.6344C14.0683 9.09228 11.9654 6.03909 9.52256 3.29509L9.561 3.33909L11.648 1.49284C14.2001 4.36222 16.4328 7.60691 18.2346 11.1095L18.3569 11.3711C19.0823 12.7315 19.8427 14.4097 20.5058 16.136L20.6163 16.4633C22.061 20.1166 23.1421 24.3647 23.6661 28.7837L23.6897 29.0282L20.921 29.3482ZM3.06087 16.032C2.50992 16.032 1.95757 16.0209 1.40384 15.9986L1.51653 13.216C1.98412 13.2369 2.53253 13.2489 3.08372 13.2489C7.95041 13.2489 12.5997 12.318 16.8633 10.6246L16.6107 10.713L16.6567 10.6964C20.1904 9.43887 23.2091 7.50366 25.6895 5.02912L25.689 5.02959L27.6563 6.99691C24.893 9.75378 21.5306 11.9114 17.7814 13.2576L17.5944 13.3162C13.2934 15.0351 8.30831 16.0321 3.09037 16.0321H3.05928L3.06087 16.032ZM7.64381 27.5868L5.12834 26.3958C7.80403 20.8366 12.8857 16.8013 18.9852 15.6123L19.1082 15.5923H19.1207C20.4276 15.3467 21.9311 15.2062 23.4674 15.2062C26.1289 15.2062 28.692 15.6279 31.0935 16.4079L30.919 16.3589L30.0759 19.0107C28.1006 18.3621 25.8272 17.9881 23.4665 17.9881C22.1071 17.9881 20.7767 18.1122 19.4859 18.3495L19.6203 18.329C14.2933 19.3749 9.94344 22.8294 7.6875 27.487L7.64381 27.5868Z" fill="white"/>
</svg>
