<svg width="32" height="32" viewBox="0 0 32 32" fill="none" xmlns="http://www.w3.org/2000/svg">
<path d="M24.5413 9.37867C25.6017 9.37867 26.4613 8.51905 26.4613 7.45867C26.4613 6.39828 25.6017 5.53867 24.5413 5.53867C23.4809 5.53867 22.6213 6.39828 22.6213 7.45867C22.6213 8.51905 23.4809 9.37867 24.5413 9.37867Z" fill="white"/>
<path d="M16 7.784C14.375 7.784 12.7865 8.26586 11.4354 9.16865C10.0843 10.0714 9.03126 11.3546 8.40941 12.8559C7.78756 14.3572 7.62485 16.0091 7.94187 17.6029C8.25888 19.1966 9.04138 20.6606 10.1904 21.8096C11.3394 22.9586 12.8034 23.7411 14.3971 24.0581C15.9909 24.3751 17.6428 24.2124 19.1441 23.5906C20.6454 22.9687 21.9286 21.9157 22.8314 20.5646C23.7341 19.2135 24.216 17.625 24.216 16C24.2164 14.921 24.0041 13.8524 23.5913 12.8555C23.1785 11.8585 22.5734 10.9526 21.8104 10.1896C21.0474 9.42663 20.1415 8.82146 19.1445 8.40869C18.1476 7.99592 17.079 7.78365 16 7.784ZM16 21.3333C14.9452 21.3333 13.914 21.0205 13.037 20.4345C12.1599 19.8485 11.4763 19.0155 11.0726 18.041C10.669 17.0664 10.5634 15.9941 10.7691 14.9595C10.9749 13.925 11.4829 12.9746 12.2288 12.2288C12.9746 11.4829 13.925 10.9749 14.9595 10.7691C15.9941 10.5634 17.0664 10.669 18.041 11.0726C19.0155 11.4763 19.8485 12.1599 20.4345 13.037C21.0205 13.914 21.3333 14.9452 21.3333 16C21.3333 17.4145 20.7714 18.771 19.7712 19.7712C18.771 20.7714 17.4145 21.3333 16 21.3333Z" fill="white"/>
<path d="M16 2.88267C20.272 2.88267 20.7787 2.89867 22.4653 2.976C23.4799 2.98693 24.4849 3.17323 25.436 3.52667C26.126 3.79328 26.7527 4.20121 27.2757 4.72428C27.7988 5.24735 28.2067 5.87399 28.4733 6.564C28.8268 7.51507 29.0131 8.5201 29.024 9.53467C29.1013 11.2213 29.1173 11.728 29.1173 16.0013C29.1173 20.2747 29.1013 20.7787 29.024 22.4653C29.0131 23.4799 28.8268 24.4849 28.4733 25.436C28.2067 26.126 27.7988 26.7527 27.2757 27.2757C26.7527 27.7988 26.126 28.2067 25.436 28.4733C24.4849 28.8268 23.4799 29.0131 22.4653 29.024C20.7787 29.1013 20.272 29.1173 16 29.1173C11.728 29.1173 11.2213 29.1013 9.53467 29.024C8.5201 29.0131 7.51507 28.8268 6.564 28.4733C5.87399 28.2067 5.24735 27.7988 4.72428 27.2757C4.20121 26.7527 3.79328 26.126 3.52667 25.436C3.17323 24.4849 2.98693 23.4799 2.976 22.4653C2.89867 20.7787 2.88267 20.272 2.88267 16C2.88267 11.728 2.89867 11.2213 2.976 9.53467C2.98693 8.5201 3.17323 7.51507 3.52667 6.564C3.79328 5.87399 4.20121 5.24735 4.72428 4.72428C5.24735 4.20121 5.87399 3.79328 6.564 3.52667C7.51507 3.17323 8.5201 2.98693 9.53467 2.976C11.2213 2.89867 11.728 2.88267 16 2.88267ZM16 0C11.6547 0 11.1093 0.0186667 9.40267 0.096C8.07568 0.122615 6.76283 0.374185 5.52 0.84C4.45713 1.25135 3.49186 1.88009 2.68598 2.68598C1.88009 3.49186 1.25135 4.45713 0.84 5.52C0.374037 6.76325 0.122464 8.07656 0.096 9.404C0.0186667 11.1107 0 11.6533 0 16C0 20.3467 0.0186667 20.8907 0.096 22.5973C0.122615 23.9243 0.374185 25.2372 0.84 26.48C1.25135 27.5429 1.88009 28.5081 2.68598 29.314C3.49186 30.1199 4.45713 30.7487 5.52 31.16C6.76325 31.626 8.07656 31.8775 9.404 31.904C11.1107 31.9813 11.6547 32 16 32C20.3453 32 20.8907 31.9813 22.5973 31.904C23.9248 31.8775 25.2381 31.626 26.4813 31.16C27.5442 30.7487 28.5095 30.1199 29.3154 29.314C30.1212 28.5081 30.75 27.5429 31.1613 26.48C31.6268 25.2367 31.878 23.9234 31.904 22.596C31.9813 20.8893 32 20.3467 32 16C32 11.6533 31.9813 11.1093 31.904 9.40267C31.8774 8.07568 31.6258 6.76283 31.16 5.52C30.7487 4.45713 30.1199 3.49186 29.314 2.68598C28.5081 1.88009 27.5429 1.25135 26.48 0.84C25.2367 0.374492 23.9234 0.123371 22.596 0.0973333C20.8893 0.0173333 20.3467 0 16 0Z" fill="white"/>
</svg>
